<svg width="173" height="173" viewBox="0 0 173 173" fill="none" xmlns="http://www.w3.org/2000/svg">
<g id="_&#229;&#156;&#150;&#229;&#177;&#164;_1" clip-path="url(#clip0_1438_12937)">
<g id="logo">
<g id="Group">
<g id="Group_2">
<g id="Group_3">
<g id="Group_4">
<path id="Vector" d="M195.284 121.066C191.576 119.747 187.498 121.686 186.179 125.394C182.4 136.024 172.268 143.168 160.981 143.168C160.34 143.168 159.712 143.139 159.085 143.089C157.773 142.918 156.511 142.747 155.313 142.554C143.285 139.945 134.251 129.229 134.251 116.432C134.251 101.688 146.243 89.6961 160.988 89.6961C165.509 89.6961 169.979 90.844 173.901 93.0113C177.345 94.9149 181.687 93.6673 183.591 90.2237C185.494 86.7801 184.247 82.4382 180.803 80.5346C174.771 77.198 167.919 75.437 160.988 75.437C150.079 75.437 139.47 79.893 131.812 87.657C128.048 91.4713 125.231 96.0342 123.399 101.068C122.522 103.485 121.859 105.966 121.317 108.475C120.803 110.821 121.103 113.744 119.841 115.833C117.253 114.3 115.035 110.921 113.117 108.654C110.607 105.688 108.226 102.622 105.873 99.5277C95.4132 85.7749 81.7306 75.6865 63.7486 75.6153C49.1462 75.5511 34.4369 82.1673 26.437 94.6939C24.1767 98.2301 22.5225 102.123 21.4744 106.18C20.6117 109.523 20.1768 112.974 20.1768 116.432C20.1768 139.04 38.5652 157.427 61.1746 157.427C83.7841 157.427 102.151 139.061 102.173 116.475C102.351 116.731 102.522 116.988 102.7 117.245C103.37 118.221 104.048 119.234 104.739 120.26C112.076 131.147 119.848 142.718 131.292 149.677C154.906 164.029 189.68 158.154 199.626 130.178C200.945 126.47 199.006 122.392 195.298 121.073L195.284 121.066ZM61.1533 143.168C46.4083 143.168 34.4155 131.176 34.4155 116.432C34.4155 101.688 46.4083 89.6961 61.1533 89.6961C75.8982 89.6961 87.891 101.688 87.891 116.432C87.891 131.176 75.8982 143.168 61.1533 143.168Z" fill="white" fill-opacity="0.5"/>
<g id="Clip path group">
<mask id="mask0_1438_12937" style="mask-type:luminance" maskUnits="userSpaceOnUse" x="20" y="75" width="181" height="83">
<g id="clippath-1">
<path id="Vector_2" d="M195.284 121.066C191.576 119.747 187.498 121.687 186.179 125.394C182.4 136.024 172.268 143.168 160.981 143.168C160.34 143.168 159.712 143.139 159.085 143.089C157.773 142.918 156.511 142.747 155.313 142.555C143.285 139.945 134.251 129.23 134.251 116.432C134.251 101.688 146.243 89.6963 160.988 89.6963C165.509 89.6963 169.979 90.8442 173.901 93.0116C177.345 94.9152 181.687 93.6675 183.591 90.2239C185.494 86.7804 184.247 82.4385 180.803 80.5349C174.771 77.1983 167.919 75.4373 160.988 75.4373C150.079 75.4373 139.47 79.8932 131.812 87.6573C128.048 91.4716 125.231 96.0345 123.399 101.068C122.522 103.485 121.859 105.966 121.317 108.476C120.803 110.821 121.103 113.744 119.841 115.833C117.253 114.3 115.035 110.921 113.117 108.654C110.607 105.688 108.226 102.622 105.873 99.528C95.4132 85.7751 81.7306 75.6868 63.7486 75.6155C49.1462 75.5513 34.4369 82.1675 26.437 94.6941C24.1767 98.2304 22.5225 102.123 21.4744 106.18C20.6117 109.524 20.1768 112.974 20.1768 116.432C20.1768 139.04 38.5652 157.427 61.1746 157.427C83.7841 157.427 102.151 139.061 102.173 116.475C102.351 116.732 102.522 116.988 102.7 117.245C103.37 118.222 104.048 119.234 104.739 120.261C112.076 131.147 119.848 142.719 131.292 149.677C154.906 164.029 189.68 158.154 199.626 130.178C200.945 126.47 199.006 122.392 195.298 121.073L195.284 121.066ZM61.1533 143.168C46.4083 143.168 34.4155 131.176 34.4155 116.432C34.4155 101.688 46.4083 89.6963 61.1533 89.6963C75.8982 89.6963 87.891 101.688 87.891 116.432C87.891 131.176 75.8982 143.168 61.1533 143.168Z" fill="white"/>
</g>
</mask>
<g mask="url(#mask0_1438_12937)">
<g id="Group_5">
<path id="Vector_3" d="M117.931 114.365C117.931 114.365 127.913 128.624 144.312 137.18C154.593 142.541 150.016 100.819 150.016 100.819L176.397 95.8286L189.944 85.8472L165.702 68.7363L131.478 79.4306L117.931 102.958L119.827 115.841" fill="white" fill-opacity="0.5"/>
</g>
</g>
</g>
</g>
</g>
<path id="Vector_4" d="M113.823 148.366C112.661 147.781 111.349 147.446 109.958 147.446C109.759 147.446 109.566 147.446 109.374 147.467C103.705 147.852 100.433 154.134 103.049 159.174L110.101 172.727C110.329 173.169 110.971 173.148 111.171 172.692L117.338 158.668C119.021 154.839 117.545 150.255 113.816 148.366H113.823Z" fill="white" fill-opacity="0.5"/>
</g>
<g id="Group_6">
<path id="Vector_5" d="M116.674 83.4007H103.505L101.366 80.5774C89.9008 65.4556 70.7067 56.4297 50.0224 56.4297C39.2702 56.4297 28.6821 58.8965 19.413 63.5592L13.2598 50.0416C24.4397 44.4164 37.1526 41.4434 50.0295 41.4434C73.6372 41.4434 95.7974 51.3891 110.1 68.2219C124.403 51.3891 146.563 41.4434 170.171 41.4434C183.041 41.4434 195.754 44.4164 206.941 50.0416L200.788 63.5592C191.519 58.8965 180.93 56.4297 170.178 56.4297C149.487 56.4297 130.293 65.4556 118.835 80.5774L116.696 83.4007H116.674Z" fill="white" fill-opacity="0.5"/>
<path id="Vector_6" d="M161.124 15C142.13 15 124.126 21.773 110.8 33.5582C97.4739 21.773 79.4705 15 60.476 15C48.2408 15 36.1553 17.8233 25.5244 23.1704L31.3782 36.0179C40.191 31.5833 50.2515 29.2448 60.476 29.2448C80.1407 29.2448 98.3866 37.8288 109.281 52.2019L110.8 54.1768L112.319 52.2019C123.213 37.8288 141.459 29.2448 161.124 29.2448C171.349 29.2448 181.409 31.5904 190.222 36.0179L196.076 23.1704C185.445 17.8233 173.359 15 161.124 15Z" fill="white" fill-opacity="0.5"/>
</g>
</g>
</g>
</g>
<defs>
<clipPath id="clip0_1438_12937">
<rect width="173" height="173" fill="white"/>
</clipPath>
</defs>
</svg>
