<svg width="20" height="20" viewBox="0 0 20 20" fill="none" xmlns="http://www.w3.org/2000/svg">
<g id="Critical_light">
<path id="Ellipse 52" d="M17.5 13.3333C17.5 11.3441 16.7098 9.43647 15.3033 8.02995C13.8968 6.62343 11.9891 5.83325 10 5.83325C8.01088 5.83325 6.10322 6.62343 4.6967 8.02995C3.29018 9.43647 2.5 11.3441 2.5 13.3333L6.67088 13.3333C6.67088 12.4503 7.02163 11.6035 7.64596 10.9792C8.27029 10.3549 9.11706 10.0041 10 10.0041C10.8829 10.0041 11.7297 10.3549 12.354 10.9792C12.9784 11.6035 13.3291 12.4503 13.3291 13.3333H17.5Z" stroke="white"/>
<path id="Vector 184" d="M10 5.83325L10 9.99992" stroke="white"/>
<path id="Vector 185" d="M15.3033 8.02979L12.4999 10.8332" stroke="white"/>
<path id="Vector 186" d="M4.69666 8.02979L7.50009 10.8332" stroke="white"/>
</g>
</svg>
