<svg width="48" height="32" viewBox="0 0 48 32" fill="none" xmlns="http://www.w3.org/2000/svg">
<rect width="48" height="32" rx="16" fill="#FBEBEB"/>
<path d="M18.5 12H17.5C17.354 12 17.2342 11.9532 17.1405 11.8595C17.0468 11.7658 17 11.646 17 11.5C17 11.354 17.0468 11.2342 17.1405 11.1405C17.2342 11.0468 17.354 11 17.5 11H21.5V9.5C21.5 9.354 21.5468 9.23417 21.6405 9.1405C21.7342 9.04683 21.854 9 22 9H26C26.146 9 26.2658 9.04683 26.3595 9.1405C26.4532 9.23417 26.5 9.354 26.5 9.5V11H30.5C30.646 11 30.7658 11.0468 30.8595 11.1405C30.9532 11.2342 31 11.354 31 11.5C31 11.646 30.9532 11.7658 30.8595 11.8595C30.7658 11.9532 30.646 12 30.5 12H29.5V22.5C29.5 22.646 29.4532 22.7658 29.3595 22.8595C29.2658 22.9532 29.146 23 29 23H19C18.854 23 18.7342 22.9532 18.6405 22.8595C18.5468 22.7658 18.5 22.646 18.5 22.5V12ZM25.5 11V10H22.5V11H25.5ZM19.5 22H28.5V12H19.5V22ZM22.5 20C22.354 20 22.2342 19.9532 22.1405 19.8595C22.0468 19.7658 22 19.646 22 19.5V14.5C22 14.354 22.0468 14.2342 22.1405 14.1405C22.2342 14.0468 22.354 14 22.5 14C22.646 14 22.7658 14.0468 22.8595 14.1405C22.9532 14.2342 23 14.354 23 14.5V19.5C23 19.646 22.9532 19.7658 22.8595 19.8595C22.7658 19.9532 22.646 20 22.5 20ZM25.5 20C25.354 20 25.2342 19.9532 25.1405 19.8595C25.0468 19.7658 25 19.646 25 19.5V14.5C25 14.354 25.0468 14.2342 25.1405 14.1405C25.2342 14.0468 25.354 14 25.5 14C25.646 14 25.7658 14.0468 25.8595 14.1405C25.9532 14.2342 26 14.354 26 14.5V19.5C26 19.646 25.9532 19.7658 25.8595 19.8595C25.7658 19.9532 25.646 20 25.5 20Z" fill="#F25A5A"/>
</svg>
