<svg width="14" height="14" viewBox="0 0 14 14" fill="none" xmlns="http://www.w3.org/2000/svg">
<path d="M6.5625 6.5625V1.75C6.5625 1.62225 6.60348 1.5174 6.68544 1.43544C6.7674 1.35348 6.87225 1.3125 7 1.3125C7.12775 1.3125 7.2326 1.35348 7.31456 1.43544C7.39652 1.5174 7.4375 1.62225 7.4375 1.75V6.5625H12.25C12.3778 6.5625 12.4826 6.60348 12.5646 6.68544C12.6465 6.7674 12.6875 6.87225 12.6875 7C12.6875 7.12775 12.6465 7.2326 12.5646 7.31456C12.4826 7.39652 12.3778 7.4375 12.25 7.4375H7.4375V12.25C7.4375 12.3778 7.39652 12.4826 7.31456 12.5646C7.2326 12.6465 7.12775 12.6875 7 12.6875C6.87225 12.6875 6.7674 12.6465 6.68544 12.5646C6.60348 12.4826 6.5625 12.3778 6.5625 12.25V7.4375H1.75C1.62225 7.4375 1.5174 7.39652 1.43544 7.31456C1.35348 7.2326 1.3125 7.12775 1.3125 7C1.3125 6.87225 1.35348 6.7674 1.43544 6.68544C1.5174 6.60348 1.62225 6.5625 1.75 6.5625H6.5625Z" fill="white"/>
</svg>
