<svg width="16" height="16" viewBox="0 0 16 16" fill="none" xmlns="http://www.w3.org/2000/svg">
<path d="M10.6667 14V13C10.6667 12.0681 10.6667 11.6022 10.5145 11.2346C10.3115 10.7446 9.92217 10.3552 9.43212 10.1522C9.06457 10 8.59863 10 7.66675 10V10C6.73486 10 6.26892 10 5.90138 10.1522C5.41133 10.3552 5.02198 10.7446 4.81899 11.2346C4.66675 11.6022 4.66675 12.0681 4.66675 13V14" stroke="white"/>
<path d="M4.6665 5.33301H7.99984" stroke="white" stroke-linecap="round"/>
<path d="M2 8C2 5.17157 2 3.75736 2.87868 2.87868C3.75736 2 5.17157 2 8 2H10.5049C10.9137 2 11.118 2 11.3018 2.07612C11.4856 2.15224 11.6301 2.29676 11.9191 2.58579L13.4142 4.08088C13.7032 4.36991 13.8478 4.51443 13.9239 4.6982C14 4.88197 14 5.08634 14 5.49509V8C14 10.8284 14 12.2426 13.1213 13.1213C12.2426 14 10.8284 14 8 14V14C5.17157 14 3.75736 14 2.87868 13.1213C2 12.2426 2 10.8284 2 8V8Z" stroke="white"/>
</svg>
