<svg width="24" height="24" viewBox="0 0 24 24" fill="none" xmlns="http://www.w3.org/2000/svg">
<circle cx="12" cy="12" r="12" fill="#E5E5EA"/>
<rect width="16" height="16" transform="translate(20 4) rotate(90)" fill="#E5E5EA"/>
<path d="M9.33337 17.333L8.97982 17.6866L9.33337 18.0401L9.68693 17.6866L9.33337 17.333ZM10.6667 8.49967C10.9428 8.49967 11.1667 8.27582 11.1667 7.99967C11.1667 7.72353 10.9428 7.49967 10.6667 7.49967L10.6667 8.49967ZM6.97982 15.6866L8.97982 17.6866L9.68693 16.9795L7.68693 14.9795L6.97982 15.6866ZM9.68693 17.6866L11.6869 15.6866L10.9798 14.9795L8.97982 16.9795L9.68693 17.6866ZM9.83337 17.333L9.83337 9.33301L8.83337 9.33301L8.83337 17.333L9.83337 17.333ZM9.83337 9.33301C9.83337 8.87277 10.2065 8.49967 10.6667 8.49967L10.6667 7.49967C9.65419 7.49967 8.83337 8.32048 8.83337 9.33301L9.83337 9.33301Z" fill="#8E8E93"/>
<path d="M14.6666 6.66699L14.3131 6.31344L14.6666 5.95989L15.0202 6.31344L14.6666 6.66699ZM14.6666 15.3337L15.1666 15.3337L14.6666 15.3337ZM13.3333 17.167C13.0572 17.167 12.8333 16.9431 12.8333 16.667C12.8333 16.3909 13.0572 16.167 13.3333 16.167L13.3333 17.167ZM12.3131 8.31344L14.3131 6.31344L15.0202 7.02055L13.0202 9.02055L12.3131 8.31344ZM15.0202 6.31344L17.0202 8.31344L16.3131 9.02055L14.3131 7.02055L15.0202 6.31344ZM15.1666 6.66699L15.1666 15.3337L14.1666 15.3337L14.1666 6.66699L15.1666 6.66699ZM15.1666 15.3337C15.1666 16.3462 14.3458 17.167 13.3333 17.167L13.3333 16.167C13.7935 16.167 14.1666 15.7939 14.1666 15.3337L15.1666 15.3337Z" fill="#8E8E93"/>
</svg>
