<svg width="16" height="16" viewBox="0 0 16 16" fill="none" xmlns="http://www.w3.org/2000/svg">
<path d="M9.33341 10L6.66675 12.6667L9.33341 15.3333" stroke="#8665CD"/>
<path d="M12.0415 5.66634C12.4759 6.41876 12.6917 7.2775 12.6645 8.14589C12.6372 9.01428 12.3681 9.85782 11.8875 10.5816C11.4068 11.3053 10.7336 11.8805 9.94373 12.2423C9.15386 12.6042 8.27866 12.7383 7.41666 12.6297" stroke="#8665CD" stroke-linecap="round"/>
<path d="M6.66659 6L9.33325 3.33333L6.66659 0.666667" stroke="#8665CD"/>
<path d="M3.95847 10.3337C3.51776 9.57032 3.30223 8.69779 3.33685 7.81704C3.37147 6.9363 3.65481 6.08337 4.15408 5.35698C4.65334 4.63059 5.34811 4.06045 6.15797 3.71255C6.96783 3.36465 7.85966 3.25322 8.73022 3.39116" stroke="#8665CD" stroke-linecap="round"/>
</svg>
