<svg width="57" height="57" viewBox="0 0 57 57" fill="none" xmlns="http://www.w3.org/2000/svg">
<path d="M44.1948 0H12.8026C5.73004 0 -0.00341797 5.73303 -0.00341797 12.8051V44.1949C-0.00341797 51.267 5.73004 57 12.8026 57H44.1948C51.2674 57 57.0008 51.267 57.0008 44.1949V12.8051C57.0008 5.73303 51.2674 0 44.1948 0Z" fill="white"/>
<mask id="mask0_233_2936" style="mask-type:luminance" maskUnits="userSpaceOnUse" x="-1" y="0" width="59" height="57">
<path d="M44.1948 0H12.8026C5.73004 0 -0.00341797 5.73303 -0.00341797 12.8051V44.1949C-0.00341797 51.267 5.73004 57 12.8026 57H44.1948C51.2674 57 57.0008 51.267 57.0008 44.1949V12.8051C57.0008 5.73303 51.2674 0 44.1948 0Z" fill="white"/>
</mask>
<g mask="url(#mask0_233_2936)">
<path d="M8.15033 0L-0.00341797 7.80685V0H8.15033Z" fill="white"/>
<path d="M8.81385 0L-0.00341797 8.44274V7.80685L8.15033 0H8.81385Z" fill="white"/>
<path d="M9.47737 0L-0.00341797 9.0771V8.44274L8.81385 0H9.47737Z" fill="white"/>
<path d="M10.1424 0L-0.00341797 9.71298V9.0771L9.47737 0H10.1424Z" fill="white"/>
<path d="M10.8059 0L-0.00341797 10.3489V9.71298L10.1424 0H10.8059Z" fill="white"/>
<path d="M11.4695 0L-0.00341797 10.9832V10.3489L10.8059 0H11.4695Z" fill="white"/>
<path d="M12.133 0L-0.00341797 11.6191V10.9832L11.4695 0H12.133Z" fill="white"/>
<path d="M12.7965 0L-0.00341797 12.255V11.6191L12.133 0H12.7965Z" fill="white"/>
<path d="M13.46 0L-0.00341797 12.8894V12.255L12.7965 0H13.46Z" fill="white"/>
<path d="M14.1235 0L-0.00341797 13.5252V12.8894L13.46 0H14.1235Z" fill="white"/>
<path d="M14.787 0L-0.00341797 14.1611V13.5252L14.1235 0H14.787Z" fill="white"/>
<path d="M15.4506 0L-0.00341797 14.7955V14.1611L14.787 0H15.4506Z" fill="white"/>
<path d="M16.1141 0L-0.00341797 15.4314V14.7955L15.4506 0H16.1141Z" fill="white"/>
<path d="M16.7776 0L-0.00341797 16.0673V15.4314L16.1141 0H16.7776Z" fill="white"/>
<path d="M17.4411 0L-0.00341797 16.7016V16.0673L16.7776 0H17.4411Z" fill="white"/>
<path d="M18.1062 0L-0.00341797 17.3375V16.7016L17.4411 0H18.1062Z" fill="white"/>
<path d="M18.7697 0L-0.00341797 17.9734V17.3375L18.1062 0H18.7697Z" fill="white"/>
<path d="M19.4332 0L-0.00341797 18.6093V17.9734L18.7697 0H19.4332Z" fill="white"/>
<path d="M20.0967 0L-0.00341797 19.2436V18.6093L19.4332 0H20.0967Z" fill="white"/>
<path d="M20.7602 0L-0.00341797 19.8795V19.2436L20.0967 0H20.7602Z" fill="white"/>
<path d="M21.4237 0L-0.00341797 20.5154V19.8795L20.7602 0H21.4237Z" fill="white"/>
<path d="M22.0873 0L-0.00341797 21.1498V20.5154L21.4237 0H22.0873Z" fill="white"/>
<path d="M22.7508 0L-0.00341797 21.7856V21.1498L22.0873 0H22.7508Z" fill="white"/>
<path d="M23.4143 0L-0.00341797 22.4215V21.7856L22.7508 0H23.4143Z" fill="white"/>
<path d="M24.0778 0L-0.00341797 23.0559V22.4215L23.4143 0H24.0778Z" fill="white"/>
<path d="M24.7413 0L-0.00341797 23.6918V23.0559L24.0778 0H24.7413Z" fill="white"/>
<path d="M25.4048 0L-0.00341797 24.3277V23.6918L24.7413 0H25.4048Z" fill="white"/>
<path d="M26.0699 0L-0.00341797 24.962V24.3277L25.4048 0H26.0699Z" fill="white"/>
<path d="M26.7334 0L-0.00341797 25.5979V24.962L26.0699 0H26.7334Z" fill="white"/>
<path d="M27.3969 0L-0.00341797 26.2338V25.5979L26.7334 0H27.3969Z" fill="white"/>
<path d="M28.0604 0L-0.00341797 26.8681V26.2338L27.3969 0H28.0604Z" fill="white"/>
<path d="M28.724 0L-0.00341797 27.504V26.8681L28.0604 0H28.724Z" fill="white"/>
<path d="M29.3875 0L-0.00341797 28.1399V27.504L28.724 0H29.3875Z" fill="white"/>
<path d="M30.051 0L-0.00341797 28.7743V28.1399L29.3875 0H30.051Z" fill="white"/>
<path d="M30.7145 0L-0.00341797 29.4102V28.7743L30.051 0H30.7145Z" fill="white"/>
<path d="M31.378 0L-0.00341797 30.046V29.4102L30.7145 0H31.378Z" fill="white"/>
<path d="M32.0415 0L-0.00341797 30.6819V30.046L31.378 0H32.0415Z" fill="white"/>
<path d="M32.7051 0L-0.00341797 31.3163V30.6819L32.0415 0H32.7051Z" fill="white"/>
<path d="M33.3686 0L-0.00341797 31.9522V31.3163L32.7051 0H33.3686Z" fill="white"/>
<path d="M34.0336 0L-0.00341797 32.5881V31.9522L33.3686 0H34.0336Z" fill="white"/>
<path d="M34.6971 0L-0.00341797 33.2224V32.5881L34.0336 0H34.6971Z" fill="white"/>
<path d="M35.3607 0L-0.00341797 33.8583V33.2224L34.6971 0H35.3607Z" fill="white"/>
<path d="M36.0242 0L-0.00341797 34.4942V33.8583L35.3607 0H36.0242Z" fill="white"/>
<path d="M36.6877 0L-0.00341797 35.1285V34.4942L36.0242 0H36.6877Z" fill="white"/>
<path d="M37.3512 0L-0.00341797 35.7644V35.1285L36.6877 0H37.3512Z" fill="white"/>
<path d="M38.0147 0L-0.00341797 36.4003V35.7644L37.3512 0H38.0147Z" fill="white"/>
<path d="M38.6783 0L-0.00341797 37.0347V36.4003L38.0147 0H38.6783Z" fill="white"/>
<path d="M39.3418 0L-0.00341797 37.6706V37.0347L38.6782 0H39.3418Z" fill="white"/>
<path d="M40.0053 0L-0.00341797 38.3065V37.6706L39.3418 0H40.0053Z" fill="white"/>
<path d="M40.6688 0L-0.00341797 38.9408V38.3064L40.0053 0H40.6688Z" fill="white"/>
<path d="M41.3323 0L-0.00341797 39.5767V38.9408L40.6688 0H41.3323Z" fill="white"/>
<path d="M41.9974 0L-0.00341797 40.2126V39.5767L41.3323 0H41.9974Z" fill="white"/>
<path d="M42.6609 0L-0.00341797 40.8469V40.2126L41.9974 0H42.6609Z" fill="white"/>
<path d="M43.3244 0L-0.00341797 41.4828V40.8469L42.6609 0H43.3244Z" fill="white"/>
<path d="M43.9879 0L-0.00341797 42.1187V41.4828L43.3244 0H43.9879Z" fill="white"/>
<path d="M44.6514 0L-0.00341797 42.7546V42.1187L43.9879 0H44.6514Z" fill="white"/>
<path d="M45.315 0L-0.00341797 43.389V42.7546L44.6514 0H45.315Z" fill="white"/>
<path d="M45.9785 0L-0.00341797 44.0248V43.389L45.315 0H45.9785Z" fill="white"/>
<path d="M46.642 0L-0.00341797 44.6607V44.0248L45.9785 0H46.642Z" fill="white"/>
<path d="M47.3055 0L-0.00341797 45.2951V44.6607L46.642 0H47.3055Z" fill="white"/>
<path d="M47.969 0L-0.00341797 45.931V45.2951L47.3055 0H47.969Z" fill="white"/>
<path d="M48.6325 0L-0.00341797 46.5669V45.931L47.969 0H48.6325Z" fill="white"/>
<path d="M49.2961 0L-0.00341797 47.2012V46.5669L48.6325 0H49.2961Z" fill="white"/>
<path d="M49.9611 0L-0.00341797 47.8371V47.2012L49.2961 0H49.9611Z" fill="white"/>
<path d="M50.6246 0L-0.00341797 48.473V47.8371L49.9611 0H50.6246Z" fill="white"/>
<path d="M51.2881 0L-0.00341797 49.1073V48.473L50.6246 0H51.2881Z" fill="white"/>
<path d="M51.9363 0L51.944 0.00765942L-0.00341797 49.7432V49.1073L51.2881 0H51.9363Z" fill="white"/>
<path d="M51.944 0.00762939L52.2612 0.338598L-0.00341797 50.3791V49.7432L51.944 0.00762939Z" fill="white"/>
<path d="M52.2612 0.338623L52.5784 0.671125L-0.00341797 51.0135V50.3791L52.2612 0.338623Z" fill="white"/>
<path d="M52.5784 0.671143L52.8956 1.00211L-0.00341797 51.6494V51.0135L52.5784 0.671143Z" fill="white"/>
<path d="M52.8956 1.00211L53.2128 1.33307L0.284668 52.0094L-0.00341797 51.7107V51.6494L52.8956 1.00211Z" fill="white"/>
<path d="M53.2133 1.32656L0.287598 52.0058L0.605552 52.3378L53.5312 1.65856L53.2133 1.32656Z" fill="white"/>
<path d="M53.5314 1.6599L0.605713 52.3391L0.923667 52.6711L53.8493 1.9919L53.5314 1.6599Z" fill="white"/>
<path d="M53.8483 1.99062L0.922607 52.6699L1.24056 53.0019L54.1662 2.32262L53.8483 1.99062Z" fill="white"/>
<path d="M54.1654 2.32131L1.23975 53.0005L1.5577 53.3325L54.4834 2.65331L54.1654 2.32131Z" fill="white"/>
<path d="M54.4835 2.65468L1.55786 53.3339L1.87582 53.6659L54.8015 2.98668L54.4835 2.65468Z" fill="white"/>
<path d="M54.8016 2.98434L1.87598 53.6636L2.19393 53.9956L55.1196 3.31633L54.8016 2.98434Z" fill="white"/>
<path d="M55.1188 3.31505L2.19312 53.9943L2.51107 54.3263L55.4367 3.64705L55.1188 3.31505Z" fill="white"/>
<path d="M55.4369 3.6484L2.51123 54.3276L2.82919 54.6596L55.7549 3.9804L55.4369 3.6484Z" fill="white"/>
<path d="M55.7538 3.97915L2.82812 54.6584L3.14608 54.9904L56.0717 4.31115L55.7538 3.97915Z" fill="white"/>
<path d="M56.0709 4.30984L3.14526 54.9891L3.46322 55.3211L56.3889 4.64183L56.0709 4.30984Z" fill="white"/>
<path d="M56.3876 4.64321L3.46191 55.3224L3.77987 55.6544L56.7055 4.97521L56.3876 4.64321Z" fill="white"/>
<path d="M56.7051 4.97983L57.0008 5.28934V5.33071L4.09259 55.9872L3.77539 55.6562L56.7051 4.97983Z" fill="white"/>
<path d="M57.001 5.96661L4.41151 56.3197L4.09277 55.9872L57.001 5.33072V5.96661Z" fill="white"/>
<path d="M57.0009 6.60247L4.72858 56.6506L4.41138 56.3196L57.0009 5.96658V6.60247Z" fill="white"/>
<path d="M57.0008 7.23683L5.04572 56.9816L4.72852 56.6506L57.0008 6.60248V7.23683Z" fill="white"/>
<path d="M57.001 7.87274L5.69103 57H5.06275L5.0459 56.9816L57.001 7.23685V7.87274Z" fill="white"/>
<path d="M57.0009 8.5086L6.35443 57H5.69092L57.0009 7.87271V8.5086Z" fill="white"/>
<path d="M57.0009 9.14446L7.01801 56.9999H6.35449L57.0009 8.50858V9.14446Z" fill="white"/>
<path d="M57.0007 9.77891L7.68134 57H7.01782L57.0007 9.14456V9.77891Z" fill="white"/>
<path d="M57.0008 10.4148L8.34491 57H7.6814L57.0008 9.7789V10.4148Z" fill="white"/>
<path d="M57.0009 11.0507L9.00849 57H8.34497L57.0009 10.4148V11.0507Z" fill="white"/>
<path d="M57.0009 11.685L9.67206 57H9.00854L57.0009 11.0506V11.685Z" fill="white"/>
<path d="M57.001 12.3209L10.3372 57H9.67212L57.001 11.685V12.3209Z" fill="white"/>
<path d="M57.001 12.9568L11.0007 57H10.3372L57.001 12.3209V12.9568Z" fill="white"/>
<path d="M57.0008 13.5911L11.664 57H11.0005L57.0008 12.9568V13.5911Z" fill="white"/>
<path d="M57.0008 14.227L12.3276 57H11.6641L57.0008 13.5912V14.227Z" fill="white"/>
<path d="M57.0009 14.8629L12.9912 57H12.3276L57.0009 14.227V14.8629Z" fill="white"/>
<path d="M57.0009 15.4972L13.6547 57H12.9912L57.0009 14.8629V15.4972Z" fill="white"/>
<path d="M57.001 16.1331L14.3183 57H13.6548L57.001 15.4972V16.1331Z" fill="white"/>
<path d="M57.0008 16.769L14.9816 57H14.3181L57.0008 16.1331V16.769Z" fill="white"/>
<path d="M57.0009 17.4034L15.6452 57H14.9817L57.0009 16.769V17.4034Z" fill="white"/>
<path d="M57.0009 18.0392L16.3088 57H15.6453L57.0009 17.4034V18.0392Z" fill="white"/>
<path d="M57.0007 18.6752L16.9721 57H16.3086L57.0007 18.0393V18.6752Z" fill="white"/>
<path d="M57.0008 19.3096L17.6357 57H16.9722L57.0008 18.6752V19.3096Z" fill="white"/>
<path d="M57.0008 19.9454L18.3008 57H17.6357L57.0008 19.3095V19.9454Z" fill="white"/>
<path d="M57.0008 20.5813L18.9643 57H18.3008L57.0008 19.9454V20.5813Z" fill="white"/>
<path d="M57.0009 21.2172L19.6279 57H18.9644L57.0009 20.5813V21.2172Z" fill="white"/>
<path d="M57.0009 21.8516L20.2914 57H19.6279L57.0009 21.2172V21.8516Z" fill="white"/>
<path d="M57.0008 22.4874L20.9548 57H20.2913L57.0008 21.8515V22.4874Z" fill="white"/>
<path d="M57.0008 23.1233L21.6184 56.9999H20.9548L57.0008 22.4874V23.1233Z" fill="white"/>
<path d="M57.0009 23.7577L22.2819 57H21.6184L57.0009 23.1234V23.7577Z" fill="white"/>
<path d="M57.0009 24.3936L22.9455 57H22.282L57.0009 23.7577V24.3936Z" fill="white"/>
<path d="M57.001 25.0294L23.6091 57H22.9456L57.001 24.3936V25.0294Z" fill="white"/>
<path d="M57.0008 25.6638L24.2724 57H23.6089L57.0008 25.0295V25.6638Z" fill="white"/>
<path d="M57.0009 26.2997L24.936 57H24.2725L57.0009 25.6638V26.2997Z" fill="white"/>
<path d="M57.0009 26.9356L25.5996 57H24.936L57.0009 26.2997V26.9356Z" fill="white"/>
<path d="M57.001 27.5699L26.2647 57H25.5996L57.001 26.9355V27.5699Z" fill="white"/>
<path d="M57.0007 28.2058L26.9279 57H26.2644L57.0007 27.5699V28.2058Z" fill="white"/>
<path d="M57.0008 28.8417L27.5915 57H26.928L57.0008 28.2058V28.8417Z" fill="white"/>
<path d="M57.0008 29.476L28.2551 57H27.5916L57.0008 28.8417V29.476Z" fill="white"/>
<path d="M57.0009 30.1119L28.9186 57H28.2551L57.0009 29.476V30.1119Z" fill="white"/>
<path d="M57.001 30.7478L29.5822 57H28.9187L57.001 30.1119V30.7478Z" fill="white"/>
<path d="M57.0008 31.3822L30.2455 57H29.582L57.0008 30.7478V31.3822Z" fill="white"/>
<path d="M57.0008 32.018L30.9091 57H30.2456L57.0008 31.3821V32.018Z" fill="white"/>
<path d="M57.0009 32.654L31.5727 57.0001H30.9092L57.0009 32.0181V32.654Z" fill="white"/>
<path d="M57.0009 33.2899L32.2363 57H31.5728L57.0009 32.654V33.2899Z" fill="white"/>
<path d="M57.0007 33.9242L32.8996 57H32.2361L57.0007 33.2899V33.9242Z" fill="white"/>
<path d="M57.0008 34.5601L33.5632 57H32.8997L57.0008 33.9242V34.5601Z" fill="white"/>
<path d="M57.0009 35.196L34.2283 57H33.5632L57.0009 34.5601V35.196Z" fill="white"/>
<path d="M57.0009 35.8303L34.8918 57H34.2283L57.0009 35.196V35.8303Z" fill="white"/>
<path d="M57.0009 36.4662L35.5554 57H34.8918L57.0009 35.8303V36.4662Z" fill="white"/>
<path d="M57.001 37.1021L36.2189 57H35.5554L57.001 36.4662V37.1021Z" fill="white"/>
<path d="M57.0008 37.7365L36.8823 57H36.2188L57.0008 37.1021V37.7365Z" fill="white"/>
<path d="M57.0008 38.3723L37.5458 57H36.8823L57.0008 37.7365V38.3723Z" fill="white"/>
<path d="M57.0009 39.0082L38.2094 57H37.5459L57.0009 38.3723V39.0082Z" fill="white"/>
<path d="M57.001 39.6426L38.873 57H38.2095L57.001 39.0082V39.6426Z" fill="white"/>
<path d="M57.0008 40.2785L39.5363 57H38.8728L57.0008 39.6426V40.2785Z" fill="white"/>
<path d="M57.0008 40.9143L40.1999 57H39.5364L57.0008 40.2784V40.9143Z" fill="white"/>
<path d="M57.0009 41.5487L40.8635 57H40.2L57.0009 40.9143V41.5487Z" fill="white"/>
<path d="M57.0009 42.1846L41.527 57H40.8635L57.0009 41.5487V42.1846Z" fill="white"/>
<path d="M57.0007 42.8205L42.1919 57H41.5269L57.0007 42.1846V42.8205Z" fill="white"/>
<path d="M57.001 43.4549L42.8557 57H42.1921L57.001 42.8205V43.4549Z" fill="white"/>
<path d="M57.0008 44.0907L43.519 57H42.8555L57.0008 43.4548V44.0907Z" fill="white"/>
<path d="M57.0008 44.7266L44.1826 57H43.519L57.0008 44.0907V44.7266Z" fill="white"/>
<path d="M57.0009 45.3625L44.8461 57H44.1826L57.0009 44.7266V45.3625Z" fill="white"/>
<path d="M57.001 45.9969L45.5097 57H44.8462L57.001 45.3625V45.9969Z" fill="white"/>
<path d="M57.0008 46.6328L46.173 57H45.5095L57.0008 45.9969V46.6328Z" fill="white"/>
<path d="M57.0008 47.2686L46.8366 57H46.1731L57.0008 46.6327V47.2686Z" fill="white"/>
<path d="M57.0009 47.903L47.5002 57H46.8367L57.0009 47.2686V47.903Z" fill="white"/>
<path d="M57.001 48.5389L48.1638 57H47.5002L57.001 47.903V48.5389Z" fill="white"/>
<path d="M57.0008 49.1748L48.8271 57H48.1636L57.0008 48.5389V49.1748Z" fill="white"/>
<path d="M57.0008 49.8091L49.4907 57H48.8271L57.0008 49.1747V49.8091Z" fill="white"/>
<path d="M57.0009 50.445L50.1558 57H49.4907L57.0009 49.8091V50.445Z" fill="white"/>
<path d="M50.1558 57L57.0009 50.445V57H50.1558Z" fill="white"/>
</g>
<path d="M46.2054 32.4748C45.5955 32.4748 45.0178 32.1086 44.7803 31.5064C44.6654 31.2152 44.5228 30.9303 44.3604 30.659C43.9237 29.9343 44.1566 28.9919 44.8799 28.5553C45.6047 28.1186 46.5471 28.3515 46.9838 29.0762C47.2336 29.4915 47.4512 29.9297 47.629 30.3786C47.94 31.1647 47.5554 32.0565 46.7678 32.3675C46.5824 32.4411 46.3923 32.4763 46.2039 32.4763L46.2054 32.4748Z" fill="url(#paint0_linear_233_2936)"/>
<path d="M46.8091 34.3119C46.0122 34.0284 45.1357 34.4452 44.8522 35.242C44.0401 37.5266 41.8626 39.0619 39.4368 39.0619C39.2989 39.0619 39.1641 39.0558 39.0292 39.045C38.7473 39.0083 38.476 38.9715 38.2186 38.9301C35.6335 38.3693 33.692 36.0663 33.692 33.3159C33.692 30.1472 36.2694 27.5699 39.4384 27.5699C40.4099 27.5699 41.3707 27.8166 42.2135 28.2825C42.9536 28.6916 43.8868 28.4234 44.296 27.6833C44.7051 26.9433 44.437 26.0101 43.6968 25.601C42.4004 24.8839 40.9278 24.5054 39.4384 24.5054C37.0938 24.5054 34.8137 25.4631 33.1679 27.1317C32.3588 27.9515 31.7535 28.9321 31.3597 30.0139C31.1712 30.5333 31.0287 31.0666 30.9122 31.6059C30.8019 32.11 30.8663 32.7383 30.595 33.1872C30.0388 32.8578 29.5622 32.1315 29.15 31.6442C28.6106 31.0068 28.0988 30.3479 27.5931 29.6829C25.3451 26.7272 22.4045 24.5591 18.5399 24.5437C15.4016 24.5299 12.2403 25.9519 10.521 28.6441C10.0352 29.4041 9.67969 30.2407 9.45443 31.1125C9.26901 31.8312 9.17554 32.5728 9.17554 33.3159C9.17554 38.1747 13.1275 42.1264 17.9867 42.1264C22.8458 42.1264 26.7932 38.1793 26.7978 33.3251C26.8361 33.3803 26.8729 33.4354 26.9112 33.4906C27.0553 33.7005 27.2008 33.9181 27.3495 34.1387C28.9263 36.4785 30.5966 38.9654 33.056 40.4608C38.1312 43.5453 45.6046 42.2827 47.7423 36.2701C48.0258 35.4733 47.609 34.5969 46.8121 34.3134L46.8091 34.3119ZM17.9821 39.0619C14.8131 39.0619 12.2357 36.4846 12.2357 33.3159C12.2357 30.1472 14.8131 27.5699 17.9821 27.5699C21.151 27.5699 23.7285 30.1472 23.7285 33.3159C23.7285 36.4846 21.151 39.0619 17.9821 39.0619Z" fill="url(#paint1_linear_233_2936)"/>
<mask id="mask1_233_2936" style="mask-type:luminance" maskUnits="userSpaceOnUse" x="9" y="24" width="39" height="19">
<path d="M46.8091 34.3119C46.0122 34.0284 45.1357 34.4452 44.8522 35.242C44.0401 37.5266 41.8626 39.0619 39.4368 39.0619C39.2989 39.0619 39.1641 39.0558 39.0292 39.045C38.7473 39.0083 38.476 38.9715 38.2186 38.9301C35.6335 38.3693 33.692 36.0663 33.692 33.3159C33.692 30.1472 36.2694 27.5699 39.4384 27.5699C40.4099 27.5699 41.3707 27.8166 42.2135 28.2825C42.9536 28.6916 43.8868 28.4234 44.296 27.6833C44.7051 26.9433 44.437 26.0101 43.6968 25.601C42.4004 24.8839 40.9278 24.5054 39.4384 24.5054C37.0938 24.5054 34.8137 25.4631 33.1679 27.1317C32.3588 27.9515 31.7535 28.9321 31.3597 30.0139C31.1712 30.5333 31.0287 31.0666 30.9122 31.6059C30.8019 32.11 30.8663 32.7383 30.595 33.1872C30.0388 32.8578 29.5622 32.1315 29.15 31.6442C28.6106 31.0068 28.0988 30.3479 27.5931 29.6829C25.3451 26.7272 22.4045 24.5591 18.5399 24.5437C15.4016 24.5299 12.2403 25.9519 10.521 28.6441C10.0352 29.4041 9.67969 30.2407 9.45443 31.1125C9.26901 31.8312 9.17554 32.5728 9.17554 33.3159C9.17554 38.1747 13.1275 42.1264 17.9867 42.1264C22.8458 42.1264 26.7932 38.1793 26.7978 33.3251C26.8361 33.3803 26.8729 33.4354 26.9112 33.4906C27.0553 33.7005 27.2008 33.9181 27.3495 34.1387C28.9263 36.4785 30.5966 38.9654 33.056 40.4608C38.1312 43.5453 45.6046 42.2827 47.7423 36.2701C48.0258 35.4733 47.609 34.5969 46.8121 34.3134L46.8091 34.3119ZM17.9821 39.0619C14.8131 39.0619 12.2357 36.4846 12.2357 33.3159C12.2357 30.1472 14.8131 27.5699 17.9821 27.5699C21.151 27.5699 23.7285 30.1472 23.7285 33.3159C23.7285 36.4846 21.151 39.0619 17.9821 39.0619Z" fill="white"/>
</mask>
<g mask="url(#mask1_233_2936)">
<path d="M30.1843 32.8716C30.1843 32.8716 32.3296 35.9362 35.8541 37.7749C38.0638 38.9271 37.08 29.9603 37.08 29.9603L42.7498 28.8878L45.6613 26.7426L40.4512 23.0652L33.0958 25.3636L30.1843 30.42L30.5919 33.1888" fill="url(#paint2_linear_233_2936)"/>
</g>
<path d="M29.3018 40.1789C29.052 40.0533 28.7701 39.9813 28.4712 39.9813C28.4283 39.9813 28.387 39.9813 28.3456 39.9859C27.1274 40.0686 26.424 41.4185 26.9864 42.5018L28.5019 45.4147C28.5509 45.5097 28.6888 45.5051 28.7317 45.407L30.0572 42.393C30.4189 41.5702 30.1017 40.585 29.3003 40.1789H29.3018Z" fill="url(#paint3_linear_233_2936)"/>
<path d="M29.9147 26.217H27.0844L26.6247 25.6102C24.1607 22.3603 20.0355 20.4204 15.5901 20.4204C13.2793 20.4204 11.0037 20.9506 9.01165 21.9527L7.68921 19.0475C10.092 17.8386 12.8242 17.1996 15.5917 17.1996C20.6653 17.1996 25.4279 19.3371 28.5019 22.9548C31.5758 19.3371 36.3384 17.1996 41.4121 17.1996C44.1781 17.1996 46.9103 17.8386 49.3146 19.0475L47.9921 21.9527C46 20.9506 43.7245 20.4204 41.4137 20.4204C36.9667 20.4204 32.8416 22.3603 30.379 25.6102L29.9193 26.217H29.9147Z" fill="url(#paint4_linear_233_2936)"/>
<path d="M39.4676 11.5164C35.3854 11.5164 31.5161 12.9721 28.6521 15.5049C25.7881 12.9721 21.9189 11.5164 17.8366 11.5164C15.2071 11.5164 12.6097 12.1232 10.325 13.2724L11.583 16.0335C13.477 15.0805 15.6392 14.5779 17.8366 14.5779C22.0629 14.5779 25.9843 16.4227 28.3257 19.5118L28.6521 19.9362L28.9785 19.5118C31.32 16.4227 35.2413 14.5779 39.4676 14.5779C41.665 14.5779 43.8272 15.082 45.7212 16.0335L46.9793 13.2724C44.6945 12.1232 42.0972 11.5164 39.4676 11.5164Z" fill="url(#paint5_linear_233_2936)"/>
<defs>
<linearGradient id="paint0_linear_233_2936" x1="45.9388" y1="28.3361" x2="45.9388" y2="32.4748" gradientUnits="userSpaceOnUse">
<stop stop-color="#E6E1F0"/>
<stop offset="1" stop-color="#502F96"/>
</linearGradient>
<linearGradient id="paint1_linear_233_2936" x1="28.4988" y1="24.5054" x2="28.4988" y2="42.1264" gradientUnits="userSpaceOnUse">
<stop stop-color="#E6E1F0"/>
<stop offset="1" stop-color="#502F96"/>
</linearGradient>
<linearGradient id="paint2_linear_233_2936" x1="37.9228" y1="23.0652" x2="37.9228" y2="37.8775" gradientUnits="userSpaceOnUse">
<stop stop-color="#E6E1F0"/>
<stop offset="0.9" stop-color="#502F96"/>
</linearGradient>
<linearGradient id="paint3_linear_233_2936" x1="28.4988" y1="39.9813" x2="28.4988" y2="45.4836" gradientUnits="userSpaceOnUse">
<stop stop-color="#E6E1F0"/>
<stop offset="1" stop-color="#502F96"/>
</linearGradient>
<linearGradient id="paint4_linear_233_2936" x1="28.4988" y1="17.1981" x2="28.4988" y2="26.217" gradientUnits="userSpaceOnUse">
<stop stop-color="#E6E1F0"/>
<stop offset="1" stop-color="#502F96"/>
</linearGradient>
<linearGradient id="paint5_linear_233_2936" x1="28.6521" y1="11.5164" x2="28.6521" y2="19.9362" gradientUnits="userSpaceOnUse">
<stop stop-color="#E6E1F0"/>
<stop offset="1" stop-color="#502F96"/>
</linearGradient>
</defs>
</svg>
