<svg width="16" height="16" viewBox="0 0 16 16" fill="none" xmlns="http://www.w3.org/2000/svg">
<g id="plus">
<path id="vector" d="M7.5 7.49997V1.99997C7.5 1.85397 7.54683 1.73414 7.6405 1.64047C7.73417 1.5468 7.854 1.49997 8 1.49997C8.146 1.49997 8.26583 1.5468 8.3595 1.64047C8.45317 1.73414 8.5 1.85397 8.5 1.99997V7.49997H14C14.146 7.49997 14.2658 7.5468 14.3595 7.64047C14.4532 7.73414 14.5 7.85397 14.5 7.99997C14.5 8.14597 14.4532 8.2658 14.3595 8.35947C14.2658 8.45314 14.146 8.49997 14 8.49997H8.5V14C8.5 14.146 8.45317 14.2658 8.3595 14.3595C8.26583 14.4531 8.146 14.5 8 14.5C7.854 14.5 7.73417 14.4531 7.6405 14.3595C7.54683 14.2658 7.5 14.146 7.5 14V8.49997H2C1.854 8.49997 1.73417 8.45314 1.6405 8.35947C1.54683 8.2658 1.5 8.14597 1.5 7.99997C1.5 7.85397 1.54683 7.73414 1.6405 7.64047C1.73417 7.5468 1.854 7.49997 2 7.49997H7.5Z" fill="white"/>
</g>
</svg>
