<svg width="24" height="24" viewBox="0 0 24 24" fill="none" xmlns="http://www.w3.org/2000/svg">
<circle cx="12" cy="12" r="12" fill="#F2F2F7"/>
<path d="M7.5 15.6667H10C11.1046 15.6667 12 16.5621 12 17.6667V11.5C12 10.1022 12 9.40327 11.7716 8.85196C11.4672 8.11687 10.8831 7.53285 10.1481 7.22837C9.59674 7.00001 8.89782 7.00001 7.5 7.00001C7.03406 7.00001 6.80109 7.00001 6.61732 7.07613C6.37229 7.17762 6.17761 7.3723 6.07612 7.61732C6 7.8011 6 8.03407 6 8.50001V14.1667C6 14.6326 6 14.8656 6.07612 15.0494C6.17761 15.2944 6.37229 15.4891 6.61732 15.5906C6.80109 15.6667 7.03406 15.6667 7.5 15.6667Z" stroke="#502F96"/>
<path d="M16.5 15.6667H14C12.8954 15.6667 12 16.5621 12 17.6667V11.5C12 10.1022 12 9.40327 12.2284 8.85196C12.5328 8.11687 13.1169 7.53285 13.8519 7.22837C14.4033 7.00001 15.1022 7.00001 16.5 7.00001C16.9659 7.00001 17.1989 7.00001 17.3827 7.07613C17.6277 7.17762 17.8224 7.3723 17.9239 7.61732C18 7.8011 18 8.03407 18 8.50001V14.1667C18 14.6326 18 14.8656 17.9239 15.0494C17.8224 15.2944 17.6277 15.4891 17.3827 15.5906C17.1989 15.6667 16.9659 15.6667 16.5 15.6667Z" stroke="#502F96"/>
</svg>
