<svg width="16" height="16" viewBox="0 0 16 16" fill="none" xmlns="http://www.w3.org/2000/svg">
<g id="Download_circle_light">
<path id="Ellipse 47" d="M3.4923 9.87448C3.75819 10.8668 4.34407 11.7436 5.15907 12.369C5.97408 12.9944 6.97267 13.3333 7.99996 13.3333C9.02725 13.3333 10.0258 12.9944 10.8408 12.369C11.6559 11.7436 12.2417 10.8668 12.5076 9.87448" stroke="#8E8E93"/>
<path id="Vector 9" d="M7.99996 2.66667L7.68761 2.27624L7.99996 2.02636L8.31231 2.27624L7.99996 2.66667ZM8.49996 8.66667C8.49996 8.94282 8.2761 9.16667 7.99996 9.16667C7.72382 9.16667 7.49996 8.94282 7.49996 8.66667L8.49996 8.66667ZM4.35428 4.9429L7.68761 2.27624L8.31231 3.05711L4.97897 5.72377L4.35428 4.9429ZM8.31231 2.27624L11.6456 4.9429L11.0209 5.72377L7.68761 3.05711L8.31231 2.27624ZM8.49996 2.66667L8.49996 8.66667L7.49996 8.66667L7.49996 2.66667L8.49996 2.66667Z" fill="#8E8E93"/>
</g>
</svg>
