<svg width="14" height="14" viewBox="0 0 14 14" fill="none" xmlns="http://www.w3.org/2000/svg">
<path d="M3.0625 6.125C2.93475 6.125 2.8299 6.16598 2.74794 6.24794C2.66598 6.3299 2.625 6.43475 2.625 6.5625V11.8125C2.625 11.9403 2.66598 12.0451 2.74794 12.1271C2.8299 12.209 2.93475 12.25 3.0625 12.25H10.9375C11.0653 12.25 11.1701 12.209 11.2521 12.1271C11.334 12.0451 11.375 11.9403 11.375 11.8125V6.5625C11.375 6.43475 11.334 6.3299 11.2521 6.24794C11.1701 6.16598 11.0653 6.125 10.9375 6.125H3.0625ZM3.0625 5.25H10.9375C11.3111 5.25904 11.621 5.38665 11.8672 5.63281C12.1134 5.87898 12.241 6.18888 12.25 6.5625V11.8125C12.241 12.1861 12.1134 12.496 11.8672 12.7422C11.621 12.9884 11.3111 13.116 10.9375 13.125H3.0625C2.68888 13.116 2.37898 12.9884 2.13281 12.7422C1.88665 12.496 1.75904 12.1861 1.75 11.8125V6.5625C1.75904 6.18888 1.88665 5.87898 2.13281 5.63281C2.37898 5.38665 2.68888 5.25904 3.0625 5.25ZM7 7.4375C7.12775 7.4375 7.2326 7.47848 7.31456 7.56044C7.39652 7.6424 7.4375 7.74725 7.4375 7.875V10.5C7.4375 10.6278 7.39652 10.7326 7.31456 10.8146C7.2326 10.8965 7.12775 10.9375 7 10.9375C6.87225 10.9375 6.7674 10.8965 6.68544 10.8146C6.60348 10.7326 6.5625 10.6278 6.5625 10.5V7.875C6.5625 7.74725 6.60348 7.6424 6.68544 7.56044C6.7674 7.47848 6.87225 7.4375 7 7.4375ZM9.625 5.25V4.375C9.60663 3.62746 9.35142 3.00767 8.85938 2.51562C8.36733 2.02358 7.74754 1.76837 7 1.75C6.25246 1.76837 5.63267 2.02358 5.14062 2.51562C4.64858 3.00767 4.39337 3.62746 4.375 4.375V5.25H9.625ZM7 0.875C7.99342 0.902417 8.81825 1.24425 9.4745 1.9005C10.1307 2.55675 10.4726 3.38158 10.5 4.375V6.125H3.5V4.375C3.52742 3.38158 3.86925 2.55675 4.5255 1.9005C5.18175 1.24425 6.00658 0.902417 7 0.875Z" fill="#502F96"/>
</svg>
