<svg width="12" height="12" viewBox="0 0 12 12" fill="none" xmlns="http://www.w3.org/2000/svg">
<path d="M9.74996 3.99601L5.99996 7.65226L2.24996 3.99601C2.17971 3.92576 2.09771 3.89064 2.00396 3.89064C1.91021 3.89064 1.82821 3.92576 1.75796 3.99601C1.68771 4.06626 1.65259 4.14826 1.65259 4.24201C1.65259 4.33576 1.68384 4.41389 1.74634 4.47639L5.74234 8.36701C5.81259 8.43726 5.89859 8.47239 6.00034 8.47239C6.10209 8.47239 6.18809 8.43726 6.25834 8.36701L10.2543 4.48801C10.3168 4.41776 10.3481 4.33376 10.3481 4.23601C10.3481 4.13826 10.313 4.05626 10.2427 3.99001C10.1725 3.92376 10.0905 3.89051 9.99671 3.89026C9.90296 3.89001 9.82096 3.92514 9.75071 3.99564L9.74996 3.99601Z" fill="#A8ABB2"/>
</svg>
