<svg width="16" height="16" viewBox="0 0 16 16" fill="none" xmlns="http://www.w3.org/2000/svg">
<path d="M6 4C6 4.26264 6.05173 4.52272 6.15224 4.76537C6.25275 5.00802 6.40007 5.2285 6.58579 5.41421C6.7715 5.59993 6.99198 5.74725 7.23463 5.84776C7.47728 5.94827 7.73736 6 8 6C8.26264 6 8.52272 5.94827 8.76537 5.84776C9.00802 5.74725 9.2285 5.59993 9.41421 5.41421C9.59993 5.2285 9.74725 5.00802 9.84776 4.76537C9.94827 4.52272 10 4.26264 10 4C10 3.73736 9.94827 3.47728 9.84776 3.23463C9.74725 2.99198 9.59993 2.7715 9.41421 2.58579C9.2285 2.40007 9.00802 2.25275 8.76537 2.15224C8.52271 2.05173 8.26264 2 8 2C7.73736 2 7.47728 2.05173 7.23463 2.15224C6.99198 2.25275 6.7715 2.40007 6.58579 2.58579C6.40007 2.7715 6.25275 2.99198 6.15224 3.23463C6.05173 3.47729 6 3.73736 6 4L6 4Z" stroke="#0DBD09"/>
<path d="M2.95862 9.26759C2.73117 9.39891 2.5318 9.57375 2.37192 9.78212C2.21203 9.99049 2.09475 10.2283 2.02677 10.482C1.95879 10.7357 1.94145 11.0003 1.97573 11.2607C2.01002 11.5211 2.09525 11.7722 2.22657 11.9996C2.35789 12.2271 2.53273 12.4265 2.7411 12.5863C2.94947 12.7462 3.18729 12.8635 3.44099 12.9315C3.69468 12.9995 3.95928 13.0168 4.21968 12.9825C4.48007 12.9482 4.73117 12.863 4.95862 12.7317C5.18608 12.6004 5.38544 12.4255 5.54533 12.2172C5.70522 12.0088 5.8225 11.771 5.89047 11.5173C5.95845 11.2636 5.97579 10.999 5.94151 10.7386C5.90723 10.4782 5.822 10.2271 5.69067 9.99964C5.55935 9.77218 5.38451 9.57282 5.17615 9.41293C4.96778 9.25304 4.72995 9.13576 4.47626 9.06779C4.22257 8.99981 3.95797 8.98247 3.69757 9.01675C3.43717 9.05103 3.18608 9.13627 2.95862 9.26759L2.95862 9.26759Z" stroke="#0DBD09"/>
<path d="M13.0414 9.26759C13.2688 9.39891 13.4682 9.57375 13.6281 9.78212C13.788 9.99049 13.9053 10.2283 13.9732 10.482C14.0412 10.7357 14.0585 11.0003 14.0243 11.2607C13.99 11.5211 13.9047 11.7722 13.7734 11.9996C13.6421 12.2271 13.4673 12.4265 13.2589 12.5863C13.0505 12.7462 12.8127 12.8635 12.559 12.9315C12.3053 12.9995 12.0407 13.0168 11.7803 12.9825C11.5199 12.9482 11.2688 12.863 11.0414 12.7317C10.8139 12.6004 10.6146 12.4255 10.4547 12.2172C10.2948 12.0088 10.1775 11.771 10.1095 11.5173C10.0415 11.2636 10.0242 10.999 10.0585 10.7386C10.0928 10.4782 10.178 10.2271 10.3093 9.99964C10.4406 9.77218 10.6155 9.57282 10.8239 9.41293C11.0322 9.25304 11.27 9.13576 11.5237 9.06779C11.7774 8.99981 12.042 8.98247 12.3024 9.01675C12.5628 9.05103 12.8139 9.13627 13.0414 9.26759L13.0414 9.26759Z" stroke="#0DBD09"/>
<path fill-rule="evenodd" clip-rule="evenodd" d="M6.01687 4.2591C6.00568 4.17343 6.00004 4.08693 6.00004 4.00016C6.00004 3.73751 6.05177 3.47744 6.15228 3.23479C6.1689 3.19465 6.18681 3.15512 6.20596 3.11625C6.05803 3.16406 5.91184 3.21785 5.76776 3.27753C5.06003 3.57068 4.41696 4.00036 3.87529 4.54204C3.33361 5.08371 2.90393 5.72677 2.61078 6.43451C2.31763 7.14224 2.16675 7.90078 2.16675 8.66683C2.16675 9.07833 2.21029 9.48768 2.29603 9.88814C2.32013 9.85211 2.34542 9.81683 2.37187 9.78235C2.53176 9.57398 2.73112 9.39915 2.95858 9.26783C3.03373 9.22444 3.11146 9.18608 3.19126 9.15293C3.17496 8.9917 3.16675 8.82947 3.16675 8.66683C3.16675 8.0321 3.29177 7.4036 3.53466 6.81719C3.77756 6.23078 4.13358 5.69796 4.5824 5.24914C4.99689 4.83465 5.48304 4.4993 6.01687 4.2591ZM9.98321 4.25907C10.5171 4.49926 11.0032 4.83462 11.4178 5.24914C11.8666 5.69796 12.2226 6.23078 12.4655 6.81718C12.7084 7.40359 12.8334 8.0321 12.8334 8.66682C12.8334 8.82948 12.8252 8.99173 12.8089 9.15296C12.8887 9.18611 12.9664 9.22445 13.0415 9.26783C13.2689 9.39915 13.4683 9.57398 13.6282 9.78235C13.6547 9.81686 13.68 9.85218 13.7041 9.88824C13.7899 9.48774 13.8334 9.07837 13.8334 8.66682C13.8334 7.90078 13.6825 7.14223 13.3894 6.4345C13.0962 5.72677 12.6665 5.08371 12.1249 4.54203C11.5832 4.00036 10.9401 3.57068 10.2324 3.27752C10.0883 3.21783 9.94206 3.16403 9.79409 3.11621C9.81325 3.15509 9.83116 3.19464 9.84779 3.23479C9.9483 3.47744 10 3.73751 10 4.00016C10 4.08692 9.99439 4.1734 9.98321 4.25907ZM11.9103 12.9956C11.8669 12.9927 11.8236 12.9885 11.7804 12.9828C11.52 12.9485 11.2689 12.8632 11.0415 12.7319C10.9664 12.6886 10.8944 12.6405 10.8259 12.588C10.5233 12.8061 10.1959 12.9889 9.84972 13.1322C9.26331 13.3751 8.6348 13.5002 8.00008 13.5002C7.36536 13.5002 6.73685 13.3751 6.15044 13.1322C5.80428 12.9889 5.4768 12.8061 5.17424 12.588C5.10569 12.6405 5.03366 12.6886 4.95858 12.7319C4.73112 12.8632 4.48003 12.9485 4.21963 12.9828C4.17647 12.9884 4.13319 12.9927 4.08987 12.9956C4.58393 13.4419 5.15131 13.8008 5.76776 14.0561C6.47549 14.3493 7.23404 14.5002 8.00008 14.5002C8.76613 14.5002 9.52467 14.3493 10.2324 14.0561C10.8489 13.8008 11.4162 13.4419 11.9103 12.9956Z" fill="#0DBD09"/>
</svg>
