<svg width="16" height="16" viewBox="0 0 16 16" fill="none" xmlns="http://www.w3.org/2000/svg">
<path d="M12 2.00001V2.00001C13.1046 2 14 2.89543 14 4L14 5.42857C14 5.49491 14 5.52808 13.9969 5.55598C13.9707 5.78779 13.7878 5.97074 13.556 5.99686C13.5281 6 13.4949 6 13.4286 6L10 6M12 2.00001V2.00001C10.8954 2 10 2.89544 10 4.00001L10 6M12 2.00001L6 2.00001C4.11438 2 3.17157 2 2.58579 2.58579C2 3.17158 2 4.11439 2 6.00001L2 14L4 13.3333L6 14L8 13.3333L10 14L10 6" stroke="white"/>
<path d="M4.66675 4.66675L7.33341 4.66675" stroke="white" stroke-linecap="round"/>
<path d="M5.33325 7.33325H4.66659" stroke="white" stroke-linecap="round"/>
<path d="M4.66675 10L6.66675 10" stroke="white" stroke-linecap="round"/>
</svg>
