<svg width="24" height="24" viewBox="0 0 24 24" fill="none" xmlns="http://www.w3.org/2000/svg">
<circle cx="12" cy="12" r="12" fill="#F2F2F7"/>
<path d="M10 8C10 8.26264 10.0517 8.52272 10.1522 8.76537C10.2528 9.00802 10.4001 9.2285 10.5858 9.41421C10.7715 9.59993 10.992 9.74725 11.2346 9.84776C11.4773 9.94827 11.7374 10 12 10C12.2626 10 12.5227 9.94827 12.7654 9.84776C13.008 9.74725 13.2285 9.59993 13.4142 9.41421C13.5999 9.2285 13.7472 9.00802 13.8478 8.76537C13.9483 8.52272 14 8.26264 14 8C14 7.73736 13.9483 7.47728 13.8478 7.23463C13.7472 6.99198 13.5999 6.7715 13.4142 6.58579C13.2285 6.40007 13.008 6.25275 12.7654 6.15224C12.5227 6.05173 12.2626 6 12 6C11.7374 6 11.4773 6.05173 11.2346 6.15224C10.992 6.25275 10.7715 6.40007 10.5858 6.58579C10.4001 6.7715 10.2527 6.99198 10.1522 7.23463C10.0517 7.47729 10 7.73736 10 8L10 8Z" stroke="#502F96"/>
<path d="M6.9585 13.2676C6.73105 13.399 6.53168 13.5738 6.37179 13.7822C6.21191 13.9905 6.09463 14.2284 6.02665 14.4821C5.95867 14.7358 5.94133 15.0004 5.97561 15.2608C6.00989 15.5211 6.09513 15.7722 6.22645 15.9997C6.35777 16.2272 6.53261 16.4265 6.74098 16.5864C6.94935 16.7463 7.18717 16.8636 7.44086 16.9316C7.69456 16.9995 7.95916 17.0169 8.21955 16.9826C8.47995 16.9483 8.73105 16.8631 8.9585 16.7317C9.18596 16.6004 9.38532 16.4256 9.54521 16.2172C9.7051 16.0089 9.82238 15.771 9.89035 15.5173C9.95833 15.2636 9.97567 14.999 9.94139 14.7386C9.90711 14.4782 9.82187 14.2272 9.69055 13.9997C9.55923 13.7722 9.38439 13.5729 9.17602 13.413C8.96765 13.2531 8.72983 13.1358 8.47614 13.0678C8.22244 12.9999 7.95784 12.9825 7.69745 13.0168C7.43705 13.0511 7.18596 13.1363 6.9585 13.2676L6.9585 13.2676Z" stroke="#502F96"/>
<path d="M17.0415 13.2676C17.269 13.399 17.4683 13.5738 17.6282 13.7822C17.7881 13.9905 17.9054 14.2284 17.9734 14.4821C18.0413 14.7358 18.0587 15.0004 18.0244 15.2608C17.9901 15.5211 17.9049 15.7722 17.7735 15.9997C17.6422 16.2272 17.4674 16.4265 17.259 16.5864C17.0507 16.7463 16.8128 16.8636 16.5591 16.9316C16.3054 16.9995 16.0408 17.0169 15.7804 16.9826C15.52 16.9483 15.269 16.8631 15.0415 16.7318C14.814 16.6004 14.6147 16.4256 14.4548 16.2172C14.2949 16.0089 14.1776 15.771 14.1096 15.5173C14.0417 15.2636 14.0243 14.999 14.0586 14.7386C14.0929 14.4782 14.1781 14.2272 14.3094 13.9997C14.4408 13.7722 14.6156 13.5729 14.824 13.413C15.0323 13.2531 15.2702 13.1358 15.5239 13.0678C15.7776 12.9999 16.0422 12.9825 16.3026 13.0168C16.5629 13.0511 16.814 13.1363 17.0415 13.2676L17.0415 13.2676Z" stroke="#502F96"/>
<path fill-rule="evenodd" clip-rule="evenodd" d="M10.0167 8.25917C10.0056 8.17349 9.99991 8.08699 9.99991 8.00022C9.99991 7.73757 10.0516 7.4775 10.1522 7.23485C10.1688 7.19471 10.1867 7.15518 10.2058 7.11631C10.0579 7.16412 9.91172 7.21791 9.76764 7.27759C9.0599 7.57074 8.41684 8.00042 7.87517 8.5421C7.33349 9.08377 6.90381 9.72683 6.61066 10.4346C6.31751 11.1423 6.16663 11.9008 6.16663 12.6669C6.16663 13.0784 6.21017 13.4877 6.29591 13.8882C6.32 13.8522 6.34529 13.8169 6.37175 13.7824C6.53164 13.574 6.731 13.3992 6.95846 13.2679C7.03361 13.2245 7.11134 13.1861 7.19113 13.153C7.17484 12.9918 7.16663 12.8295 7.16663 12.6669C7.16663 12.0322 7.29164 11.4037 7.53454 10.8173C7.77744 10.2308 8.13346 9.69802 8.58227 9.2492C8.99677 8.83471 9.48292 8.49936 10.0167 8.25917ZM13.9831 8.25913C14.5169 8.49932 15.0031 8.83468 15.4176 9.2492C15.8665 9.69802 16.2225 10.2308 16.4654 10.8172C16.7083 11.4037 16.8333 12.0322 16.8333 12.6669C16.8333 12.8295 16.8251 12.9918 16.8088 13.153C16.8885 13.1862 16.9662 13.2245 17.0414 13.2679C17.2688 13.3992 17.4682 13.574 17.6281 13.7824C17.6546 13.8169 17.6799 13.8522 17.704 13.8883C17.7897 13.4878 17.8333 13.0784 17.8333 12.6669C17.8333 11.9008 17.6824 11.1423 17.3893 10.4346C17.0961 9.72683 16.6664 9.08377 16.1247 8.54209C15.5831 8.00042 14.94 7.57074 14.2323 7.27759C14.0882 7.21789 13.9419 7.1641 13.794 7.11627C13.8131 7.15515 13.831 7.1947 13.8477 7.23485C13.9482 7.4775 13.9999 7.73757 13.9999 8.00022C13.9999 8.08698 13.9943 8.17346 13.9831 8.25913ZM15.9102 16.9956C15.8668 16.9928 15.8235 16.9885 15.7803 16.9828C15.5199 16.9485 15.2688 16.8633 15.0414 16.732C14.9663 16.6886 14.8943 16.6406 14.8258 16.5881C14.5232 16.8061 14.1957 16.9889 13.8496 17.1323C13.2632 17.3752 12.6347 17.5002 12 17.5002C11.3652 17.5002 10.7367 17.3752 10.1503 17.1323C9.80416 16.9889 9.47668 16.8061 9.17412 16.5881C9.10556 16.6405 9.03354 16.6886 8.95846 16.732C8.731 16.8633 8.4799 16.9485 8.21951 16.9828C8.17635 16.9885 8.13307 16.9928 8.08974 16.9956C8.5838 17.4419 9.15119 17.8008 9.76764 18.0562C10.4754 18.3493 11.2339 18.5002 12 18.5002C12.766 18.5002 13.5245 18.3493 14.2323 18.0562C14.8487 17.8008 15.4161 17.4419 15.9102 16.9956Z" fill="#502F96"/>
</svg>
