<svg width="24" height="24" viewBox="0 0 24 24" fill="none" xmlns="http://www.w3.org/2000/svg">
<path d="M17.5 3.49994H17.7C19.4913 3.49994 20.387 3.49994 20.9435 4.05644C21.5 4.61293 21.5 5.5086 21.5 7.29994V7.49994" stroke="#363636" stroke-linecap="round"/>
<path d="M17.5 20.4999H17.7C19.4913 20.4999 20.387 20.4999 20.9435 19.9434C21.5 19.3869 21.5 18.4913 21.5 16.6999V16.4999" stroke="#363636" stroke-linecap="round"/>
<path d="M6.5 3.49994H6.3C4.50866 3.49994 3.61299 3.49994 3.0565 4.05644C2.5 4.61293 2.5 5.5086 2.5 7.29994V7.49994" stroke="#363636" stroke-linecap="round"/>
<path d="M6.5 20.4999H6.3C4.50866 20.4999 3.61299 20.4999 3.0565 19.9434C2.5 19.3869 2.5 18.4913 2.5 16.6999V16.4999" stroke="#363636" stroke-linecap="round"/>
<path d="M7.21484 15.7847C7.68758 15.1024 8.37508 14.5253 9.21678 14.1204C10.0585 13.7154 11.0187 13.4999 12 13.4999C12.9813 13.4999 13.9415 13.7154 14.7832 14.1204C15.6249 14.5253 16.3124 15.1024 16.7852 15.7847" stroke="#363636" stroke-linecap="round"/>
<circle cx="12" cy="8.99994" r="2.5" stroke="#363636" stroke-linecap="round"/>
</svg>
