<svg width="160" height="218" viewBox="0 0 160 218" fill="none" xmlns="http://www.w3.org/2000/svg">
<path fill-rule="evenodd" clip-rule="evenodd" d="M80 173.382C124.183 173.382 160 169.151 160 163.931C160 158.711 116.082 157.18 71.8987 157.18C27.716 157.18 0 158.711 0 163.931C0 169.151 35.8172 173.382 80 173.382Z" fill="#F7F8FC"/>
<path fill-rule="evenodd" clip-rule="evenodd" d="M26.3291 90.3445H107.342L85.0633 116.674H4.05066L26.3291 90.3445Z" fill="#E5E7E9"/>
<path fill-rule="evenodd" clip-rule="evenodd" d="M132.762 59.9254L99.7222 44.5186L93.9682 32.8967L127.008 48.3035L132.762 59.9254Z" fill="#E5E7E9"/>
<path fill-rule="evenodd" clip-rule="evenodd" d="M132.762 59.9254L63.011 27.3999L32.1974 93.48L101.949 126.006L132.762 59.9254Z" fill="#EDEEF2"/>
<path d="M63.011 27.3998L31.8065 12.8489L0.992832 78.9291L32.1973 93.48L63.011 27.3998Z" fill="url(#paint0_linear_122_6767)"/>
<path fill-rule="evenodd" clip-rule="evenodd" d="M31.8065 12.8489L63.0111 27.3998L94.7005 26.534L63.4959 11.9831L31.8065 12.8489Z" fill="#F8F9FB"/>
<path d="M107.342 90.3445H26.3291V163.256H107.342V90.3445Z" fill="url(#paint1_linear_122_6767)"/>
<mask id="mask0_122_6767" style="mask-type:alpha" maskUnits="userSpaceOnUse" x="107" y="90" width="35" height="74">
<path d="M141.772 90.3445H107.342V163.256H141.772V90.3445Z" fill="white"/>
</mask>
<g mask="url(#mask0_122_6767)">
<path d="M107.342 90.3445H141.772V163.256H107.342V90.3445Z" fill="#E0E3E9"/>
<path fill-rule="evenodd" clip-rule="evenodd" d="M141.772 90.3445H107.342L115.443 126.8L155.949 122.75L141.772 90.3445Z" fill="#D5D7DE"/>
</g>
<path fill-rule="evenodd" clip-rule="evenodd" d="M141.772 90.3445H107.342L125.57 116.674H160L141.772 90.3445Z" fill="#F8F9FB"/>
<path d="M41.934 201.541L41.024 201.863C40.898 201.359 40.59 200.561 40.324 199.973L41.192 199.707C41.486 200.281 41.794 201.051 41.934 201.541ZM42.116 208.443H39.974V210.781H42.116V208.443ZM43.04 207.589V211.635H39.974V212.279H39.064V207.589H43.04ZM39.008 206.497V205.671H43.082V206.497H39.008ZM43.068 203.781V204.607H38.994V203.781H43.068ZM38.672 202.871V202.017H43.474V202.871H38.672ZM45.364 209.437H49.606V208.401H45.406C45.406 208.723 45.392 209.073 45.364 209.437ZM49.606 206.623H45.406V207.659H49.606V206.623ZM50.586 205.797V211.369C50.586 211.873 50.488 212.125 50.11 212.279C49.76 212.433 49.186 212.433 48.304 212.433C48.262 212.167 48.15 211.817 48.01 211.565C48.64 211.593 49.214 211.593 49.382 211.579C49.564 211.579 49.606 211.523 49.606 211.369V210.179H45.266C45.112 211.061 44.832 211.943 44.258 212.629C44.104 212.433 43.74 212.055 43.53 211.943C44.356 210.893 44.454 209.479 44.454 208.373V205.797H50.586ZM47.954 204.173H51.398V204.971H43.628V204.173H46.932V203.221H44.132V202.465H46.932V201.611H43.782V200.813H46.932V199.679H47.954V200.813H51.258V201.611H47.954V202.465H50.992V203.221H47.954V204.173ZM61.926 211.243H63.704C64.208 211.243 64.292 210.949 64.348 209.143C64.586 209.325 65.02 209.507 65.314 209.577C65.202 211.691 64.894 212.237 63.788 212.237H61.8C60.568 212.237 60.26 211.887 60.26 210.753V206.651H57.614C57.334 209.381 56.55 211.425 53.372 212.531C53.26 212.265 52.952 211.845 52.714 211.649C55.668 210.739 56.298 208.947 56.536 206.651H52.91V205.643H58.482V202.843H55.598C55.262 203.641 54.842 204.383 54.38 204.971C54.142 204.803 53.736 204.593 53.47 204.481C54.436 203.305 55.136 201.457 55.472 200.001L56.522 200.211C56.382 200.743 56.2 201.289 56.004 201.849H58.482V199.679H59.518V201.849H64.11V202.843H59.518V205.643H65.118V206.651H61.296V210.753C61.296 211.173 61.394 211.243 61.926 211.243ZM77.928 200.939H75.912V201.877H77.928V200.939ZM78.208 204.355H76.248C75.282 204.355 75.044 204.005 75.044 203.067V200.239H78.838V202.591H75.912V203.081C75.912 203.473 75.968 203.599 76.276 203.599H78.18C78.418 203.599 78.852 203.585 79.09 203.543C79.104 203.767 79.132 204.089 79.174 204.285C78.964 204.341 78.572 204.355 78.208 204.355ZM73.434 200.925H71.46V201.863H73.434V200.925ZM71.46 203.641L74.456 203.179C74.414 203.417 74.372 203.739 74.372 203.921C71.264 204.481 70.858 204.565 70.62 204.705C70.564 204.467 70.368 204.075 70.256 203.865C70.41 203.781 70.62 203.613 70.62 203.081V200.225H74.33V202.577H71.46V203.641ZM73.602 206.413V207.701H75.786V206.413H73.602ZM79.23 207.701V208.513H70.13V207.701H72.636V206.413H70.704V205.601H72.636V204.593H73.602V205.601H75.786V204.593H76.752V205.601H78.782V206.413H76.752V207.701H79.23ZM79.006 210.277L78.082 210.753C77.494 210.235 76.444 209.591 75.422 209.101L76.122 208.625C77.158 209.115 78.334 209.759 79.006 210.277ZM73.098 208.639L74.022 208.961C73.28 209.647 72.146 210.361 71.194 210.809C71.012 210.613 70.634 210.291 70.396 210.165C71.39 209.773 72.44 209.213 73.098 208.639ZM69.542 201.891L68.744 202.465C68.366 201.877 67.596 200.925 66.98 200.239L67.75 199.763C68.394 200.449 69.15 201.331 69.542 201.891ZM69.528 206.315L70.032 206.511C69.864 207.659 69.584 208.681 69.248 209.549C70.172 211.103 71.936 211.327 74.582 211.327C76.066 211.327 78.096 211.257 79.538 211.131C79.37 211.369 79.258 211.845 79.202 212.139C77.886 212.209 76.122 212.251 74.582 212.251C71.74 212.251 69.962 211.971 68.87 210.389C68.38 211.285 67.806 211.985 67.148 212.489C67.008 212.265 66.672 211.915 66.462 211.775C67.68 210.907 68.562 209.353 68.982 207.197H67.722C67.414 207.197 67.036 207.295 66.924 207.393C66.868 207.141 66.672 206.665 66.56 206.455C66.756 206.399 66.952 206.315 67.176 206.049C67.428 205.755 68.1 204.621 68.576 203.753H66.714V202.885H69.122L69.29 202.815L69.976 203.095C69.5 203.893 68.632 205.391 67.988 206.343H69.346L69.528 206.315ZM84.62 205.573L84.76 206.525C84.284 206.693 83.822 206.861 83.36 207.001V211.173C83.36 211.747 83.22 212.027 82.87 212.195C82.548 212.363 82.016 212.391 81.134 212.391C81.092 212.125 80.966 211.705 80.826 211.411C81.428 211.439 81.988 211.439 82.142 211.425C82.31 211.425 82.38 211.369 82.38 211.187V207.337C81.834 207.533 81.302 207.701 80.812 207.855L80.56 206.861C81.064 206.721 81.694 206.525 82.38 206.301V203.445H80.7V202.479H82.38V199.693H83.36V202.479H84.774V203.445H83.36V205.993L84.62 205.573ZM90.724 206.581H87.476C87.686 206.987 87.952 207.519 88.022 207.869L87.882 207.911H90.136C90.332 207.505 90.584 206.973 90.724 206.581ZM88.414 200.953V202.409H89.814V200.953H88.414ZM87.588 202.409V200.953H86.258V202.409H87.588ZM90.64 200.953V202.409H92.054V200.953H90.64ZM93.286 209.731L93.3 210.543H89.548V212.461H88.554V210.543H84.76V209.731H88.554V208.723H85.236V207.911H87.084C86.972 207.575 86.79 207.127 86.608 206.777L87.406 206.581H84.956V205.755H88.554V204.775H85.558V203.977H88.554V203.151H85.404V200.197H92.936V203.151H89.548V203.977H92.642V204.775H89.548V205.755H93.09V206.581H90.878L91.704 206.805C91.494 207.183 91.27 207.575 91.074 207.911H92.796V208.723H89.548V209.731H93.286ZM98.816 209.283L98.928 210.207C97.472 210.613 95.932 210.977 94.742 211.285L94.546 210.291C95.036 210.193 95.652 210.039 96.324 209.899V206.105H94.896V205.153H96.324V201.639H94.7V200.687H99.012V201.639H97.29V205.153H98.704V206.105H97.29V209.661L98.816 209.283ZM101.77 199.665V205.615C101.77 208.429 101.42 210.823 98.76 212.475C98.634 212.265 98.312 211.901 98.116 211.733C100.468 210.291 100.818 208.233 100.832 205.825L100.272 206.077C99.992 205.307 99.362 204.089 98.83 203.193L99.6 202.899C100.034 203.571 100.51 204.397 100.832 205.097V199.665H101.77ZM105.074 210.991H107.356V211.971H101.462V210.991H104.08V206.665H102.428V205.713H104.08V201.597H102.176V200.645H107.062V201.597H105.074V205.713H106.824V206.665H105.074V210.991ZM114.146 207.715L113.334 208.037C113.292 207.799 113.222 207.533 113.124 207.225C109.89 207.729 109.456 207.841 109.176 207.995C109.12 207.785 108.966 207.295 108.854 207.015C109.148 206.959 109.47 206.609 109.89 206.105C110.114 205.853 110.562 205.279 111.066 204.523C109.582 204.705 109.288 204.775 109.092 204.859C109.036 204.663 108.868 204.159 108.756 203.907C108.994 203.851 109.246 203.557 109.54 203.137C109.834 202.731 110.8 201.135 111.374 199.623L112.354 200.029C111.738 201.345 110.968 202.675 110.198 203.739L111.668 203.599C112.046 202.997 112.41 202.353 112.732 201.723L113.628 202.255C112.704 203.865 111.612 205.475 110.478 206.763L112.886 206.413C112.718 205.979 112.536 205.531 112.368 205.139L113.11 204.873C113.572 205.797 114.006 206.987 114.146 207.715ZM109.428 208.611L110.268 208.765C110.128 209.955 109.848 211.271 109.554 212.139C109.386 212.041 108.966 211.901 108.756 211.831C109.078 210.977 109.288 209.731 109.428 208.611ZM110.926 208.709L111.682 208.555C111.85 209.437 112.018 210.571 112.06 211.341L111.262 211.523C111.22 210.767 111.08 209.605 110.926 208.709ZM112.438 208.443L113.18 208.219C113.46 208.947 113.768 209.871 113.894 210.473L113.11 210.739C113.012 210.123 112.704 209.171 112.438 208.443ZM119.816 205.251H117.016C117.338 206.497 117.786 207.659 118.388 208.653C119.004 207.673 119.494 206.525 119.816 205.251ZM118.724 201.317H116.4C116.372 202.367 116.344 203.375 116.288 204.313H118.206C118.388 203.375 118.584 202.213 118.724 201.317ZM120.348 204.257L120.992 204.495C120.614 206.539 119.914 208.219 119.004 209.563C119.676 210.417 120.488 211.089 121.468 211.523C121.23 211.719 120.908 212.111 120.754 212.391C119.816 211.915 119.032 211.229 118.374 210.389C117.646 211.257 116.806 211.957 115.896 212.461C115.756 212.209 115.476 211.845 115.238 211.677C116.162 211.187 117.03 210.459 117.772 209.521C117.086 208.373 116.568 207.029 116.19 205.545C115.924 208.345 115.378 210.599 114.118 212.363C113.95 212.195 113.46 211.845 113.208 211.719C115.042 209.437 115.336 205.853 115.378 201.317H114.006V200.337H118.948L119.116 200.281L119.83 200.393C119.676 201.541 119.438 203.067 119.186 204.313H120.166L120.348 204.257Z" fill="#8E8E93"/>
<defs>
<linearGradient id="paint0_linear_122_6767" x1="43.9296" y1="18.502" x2="44.265" y2="87.7097" gradientUnits="userSpaceOnUse">
<stop stop-color="#FCFCFD"/>
<stop offset="1" stop-color="#EEEFF3"/>
</linearGradient>
<linearGradient id="paint1_linear_122_6767" x1="26.3291" y1="97.2711" x2="100.453" y2="163.983" gradientUnits="userSpaceOnUse">
<stop stop-color="#FCFCFD"/>
<stop offset="1" stop-color="#E9EBEF"/>
</linearGradient>
</defs>
</svg>
