<svg width="24" height="24" viewBox="0 0 24 24" fill="none" xmlns="http://www.w3.org/2000/svg">
<path d="M9 5.99994C9 6.3939 9.0776 6.78401 9.22836 7.14799C9.37913 7.51197 9.6001 7.84268 9.87868 8.12126C10.1573 8.39984 10.488 8.62081 10.852 8.77158C11.2159 8.92234 11.606 8.99994 12 8.99994C12.394 8.99994 12.7841 8.92234 13.1481 8.77158C13.512 8.62081 13.8427 8.39983 14.1213 8.12126C14.3999 7.84268 14.6209 7.51197 14.7716 7.14799C14.9224 6.78401 15 6.3939 15 5.99994C15 5.60597 14.9224 5.21586 14.7716 4.85189C14.6209 4.48791 14.3999 4.15719 14.1213 3.87862C13.8427 3.60004 13.512 3.37906 13.148 3.2283C12.7841 3.07754 12.394 2.99994 12 2.99994C11.606 2.99994 11.2159 3.07754 10.8519 3.2283C10.488 3.37907 10.1573 3.60004 9.87868 3.87862C9.6001 4.1572 9.37912 4.48791 9.22836 4.85189C9.0776 5.21587 9 5.60598 9 5.99994L9 5.99994Z" stroke="#363636"/>
<path d="M4.43781 13.9014C4.09663 14.0984 3.79758 14.3607 3.55775 14.6732C3.31792 14.9858 3.142 15.3425 3.04004 15.7231C2.93807 16.1036 2.91206 16.5005 2.96348 16.8911C3.0149 17.2817 3.14275 17.6583 3.33974 17.9995C3.53672 18.3407 3.79897 18.6397 4.11153 18.8796C4.42408 19.1194 4.78081 19.2953 5.16136 19.3973C5.5419 19.4993 5.9388 19.5253 6.32939 19.4739C6.71999 19.4224 7.09663 19.2946 7.43781 19.0976C7.779 18.9006 8.07804 18.6384 8.31787 18.3258C8.5577 18.0132 8.73362 17.6565 8.83559 17.276C8.93756 16.8954 8.96357 16.4985 8.91215 16.1079C8.86072 15.7173 8.73287 15.3407 8.53589 14.9995C8.33891 14.6583 8.07665 14.3593 7.7641 14.1195C7.45154 13.8796 7.09481 13.7037 6.71427 13.6017C6.33373 13.4998 5.93683 13.4738 5.54623 13.5252C5.15564 13.5766 4.779 13.7045 4.43781 13.9014L4.43781 13.9014Z" stroke="#363636"/>
<path d="M19.5622 13.9014C19.9034 14.0984 20.2024 14.3607 20.4422 14.6732C20.6821 14.9858 20.858 15.3425 20.96 15.7231C21.0619 16.1036 21.0879 16.5005 21.0365 16.8911C20.9851 17.2817 20.8572 17.6583 20.6603 17.9995C20.4633 18.3407 20.201 18.6397 19.8885 18.8796C19.5759 19.1194 19.2192 19.2953 18.8386 19.3973C18.4581 19.4993 18.0612 19.5253 17.6706 19.4739C17.28 19.4224 16.9034 19.2946 16.5622 19.0976C16.221 18.9006 15.922 18.6384 15.6821 18.3258C15.4423 18.0132 15.2664 17.6565 15.1644 17.276C15.0624 16.8954 15.0364 16.4985 15.0879 16.1079C15.1393 15.7173 15.2671 15.3407 15.4641 14.9995C15.6611 14.6583 15.9234 14.3593 16.2359 14.1195C16.5485 13.8796 16.9052 13.7037 17.2857 13.6017C17.6663 13.4998 18.0632 13.4738 18.4538 13.5252C18.8444 13.5766 19.221 13.7045 19.5622 13.9014L19.5622 13.9014Z" stroke="#363636"/>
<path fill-rule="evenodd" clip-rule="evenodd" d="M9.00254 6.12527C9.0008 6.08366 8.99993 6.04197 8.99993 6.00024C8.99993 5.65288 9.06026 5.30851 9.17787 4.98241C9.03301 5.0334 8.8894 5.08836 8.74719 5.14727C7.71592 5.57443 6.77889 6.20054 5.98959 6.98984C5.20029 7.77914 4.57419 8.71617 4.14702 9.74744C3.71986 10.7787 3.5 11.884 3.5 13.0002C3.5 13.5264 3.54885 14.0501 3.64523 14.5648C3.86884 14.2999 4.13691 14.0754 4.43774 13.9017C4.47388 13.8809 4.51042 13.8608 4.54733 13.8415C4.51586 13.5627 4.5 13.2819 4.5 13.0002C4.5 12.0153 4.69399 11.0401 5.0709 10.1301C5.44781 9.22018 6.00026 8.39339 6.6967 7.69695C7.36051 7.03313 8.14275 6.50014 9.00254 6.12527ZM14.9973 6.12521C15.8572 6.50008 16.6395 7.03309 17.3033 7.69694C17.9997 8.39338 18.5522 9.22017 18.9291 10.1301C19.306 11.0401 19.5 12.0153 19.5 13.0002C19.5 13.2819 19.4841 13.5628 19.4527 13.8416C19.4895 13.8608 19.526 13.8809 19.5621 13.9017C19.863 14.0755 20.1311 14.2999 20.3547 14.5649C20.4511 14.0502 20.5 13.5264 20.5 13.0002C20.5 11.884 20.2801 10.7787 19.853 9.74743C19.4258 8.71616 18.7997 7.77913 18.0104 6.98983C17.2211 6.20054 16.2841 5.57443 15.2528 5.14727C15.1105 5.08834 14.9669 5.03336 14.822 4.98236C14.9396 5.30848 14.9999 5.65286 14.9999 6.00024C14.9999 6.04195 14.9991 6.08362 14.9973 6.12521ZM17.533 19.4528C17.1916 19.3916 16.8631 19.2717 16.5621 19.0979C16.5261 19.0771 16.4906 19.0556 16.4555 19.0334C15.9665 19.3945 15.4343 19.6957 14.8701 19.9293C13.9602 20.3062 12.9849 20.5002 12 20.5002C11.0151 20.5002 10.0398 20.3063 9.12988 19.9293C8.56568 19.6956 8.03345 19.3945 7.54443 19.0333C7.50935 19.0556 7.47378 19.0771 7.43775 19.0979C7.13681 19.2716 6.80829 19.3916 6.46694 19.4528C7.14728 20.0362 7.91668 20.5092 8.74719 20.8532C9.77846 21.2804 10.8838 21.5002 12 21.5002C13.1162 21.5002 14.2215 21.2804 15.2528 20.8532C16.0833 20.5092 16.8527 20.0362 17.533 19.4528Z" fill="#363636"/>
</svg>
