<svg width="192" height="824" viewBox="0 0 192 824" fill="none" xmlns="http://www.w3.org/2000/svg">
<g opacity="0.2">
<path d="M29.33331 28C29.33331 24.5927 29.33331 22.889 29.60891 21.4712C30.7756 15.4689 35.4689 10.7757 41.4712 9.60894C42.889 9.33334 44.5926 9.33334 48 9.33334V9.33334C51.4073 9.33334 53.111 9.33334 54.5288 9.60894C60.5311 10.7757 65.2243 15.4689 66.3911 21.4712C66.6666 22.889 66.6666 24.5927 66.6666 28V38.807C66.6666 42.4419 66.6666 44.2593 65.5719 45.4161C65.5214 45.4695 65.4694 45.5215 65.4161 45.572C64.2593 46.6667 62.4419 46.6667 58.807 46.6667H48C44.5926 46.6667 42.889 46.6667 41.4712 46.3911C35.4689 45.2244 30.7756 40.5311 29.60891 34.5288C29.33331 33.111 29.33331 31.4073 29.33331 28V28Z" stroke="#E6E1F0"/>
<path d="M41 25.6667L55 25.6667" stroke="#E6E1F0" stroke-linecap="round" stroke-linejoin="round"/>
<path d="M48 35H55" stroke="#E6E1F0" stroke-linecap="round" stroke-linejoin="round"/>
<path d="M29.33331 220C29.33331 216.593 29.33331 214.889 29.60891 213.471C30.7756 207.469 35.4689 202.776 41.4712 201.609C42.889 201.333 44.5926 201.333 48 201.333V201.333C51.4073 201.333 53.111 201.333 54.5288 201.609C60.5311 202.776 65.2243 207.469 66.3911 213.471C66.6666 214.889 66.6666 216.593 66.6666 220V230.807C66.6666 234.442 66.6666 236.259 65.5719 237.416C65.5214 237.469 65.4694 237.521 65.4161 237.572C64.2593 238.667 62.4419 238.667 58.807 238.667H48C44.5926 238.667 42.889 238.667 41.4712 238.391C35.4689 237.224 30.7756 232.531 29.60891 226.529C29.33331 225.111 29.33331 223.407 29.33331 220V220Z" stroke="#E6E1F0"/>
<path d="M41 217.667L55 217.667" stroke="#E6E1F0" stroke-linecap="round" stroke-linejoin="round"/>
<path d="M48 227H55" stroke="#E6E1F0" stroke-linecap="round" stroke-linejoin="round"/>
<path d="M29.33331 412C29.33331 408.593 29.33331 406.889 29.60891 405.471C30.7756 399.469 35.4689 394.776 41.4712 393.609C42.889 393.333 44.5926 393.333 48 393.333V393.333C51.4073 393.333 53.111 393.333 54.5288 393.609C60.5311 394.776 65.2243 399.469 66.3911 405.471C66.6666 406.889 66.6666 408.593 66.6666 412V422.807C66.6666 426.442 66.6666 428.259 65.5719 429.416C65.5214 429.469 65.4694 429.521 65.4161 429.572C64.2593 430.667 62.4419 430.667 58.807 430.667H48C44.5926 430.667 42.889 430.667 41.4712 430.391C35.4689 429.224 30.7756 424.531 29.60891 418.529C29.33331 417.111 29.33331 415.407 29.33331 412V412Z" stroke="#E6E1F0"/>
<path d="M41 409.667L55 409.667" stroke="#E6E1F0" stroke-linecap="round" stroke-linejoin="round"/>
<path d="M48 419H55" stroke="#E6E1F0" stroke-linecap="round" stroke-linejoin="round"/>
<path d="M29.33331 604C29.33331 600.593 29.33331 598.889 29.60891 597.471C30.7756 591.469 35.4689 586.776 41.4712 585.609C42.889 585.333 44.5926 585.333 48 585.333V585.333C51.4073 585.333 53.111 585.333 54.5288 585.609C60.5311 586.776 65.2243 591.469 66.3911 597.471C66.6666 598.889 66.6666 600.593 66.6666 604V614.807C66.6666 618.442 66.6666 620.259 65.5719 621.416C65.5214 621.469 65.4694 621.521 65.4161 621.572C64.2593 622.667 62.4419 622.667 58.807 622.667H48C44.5926 622.667 42.889 622.667 41.4712 622.391C35.4689 621.224 30.7756 616.531 29.60891 610.529C29.33331 609.111 29.33331 607.407 29.33331 604V604Z" stroke="#E6E1F0"/>
<path d="M41 601.667L55 601.667" stroke="#E6E1F0" stroke-linecap="round" stroke-linejoin="round"/>
<path d="M48 611H55" stroke="#E6E1F0" stroke-linecap="round" stroke-linejoin="round"/>
<path d="M29.33331 796C29.33331 792.593 29.33331 790.889 29.60891 789.471C30.7756 783.469 35.4689 778.776 41.4712 777.609C42.889 777.333 44.5926 777.333 48 777.333V777.333C51.4073 777.333 53.111 777.333 54.5288 777.609C60.5311 778.776 65.2243 783.469 66.3911 789.471C66.6666 790.889 66.6666 792.593 66.6666 796V806.807C66.6666 810.442 66.6666 812.259 65.5719 813.416C65.5214 813.469 65.4694 813.521 65.4161 813.572C64.2593 814.667 62.4419 814.667 58.807 814.667H48C44.5926 814.667 42.889 814.667 41.4712 814.391C35.4689 813.224 30.7756 808.531 29.60891 802.529C29.33331 801.111 29.33331 799.407 29.33331 796V796Z" stroke="#E6E1F0"/>
<path d="M41 793.667L55 793.667" stroke="#E6E1F0" stroke-linecap="round" stroke-linejoin="round"/>
<path d="M48 803H55" stroke="#E6E1F0" stroke-linecap="round" stroke-linejoin="round"/>
<path d="M66.6666 124V141C66.6666 142.886 66.6666 143.828 66.0809 144.414C65.4951 145 64.5523 145 62.6666 145H35.1666C32.5 145 31.1667 145 30.3065 144.212C30.2422 144.153 30.1804 144.091 30.1215 144.027C29.33331 143.167 29.33331 141.833 29.33331 139.167V139.167C29.33331 136.5 29.33331 135.167 30.1215 134.307C30.1804 134.242 30.2422 134.18 30.3065 134.121C31.1667 133.333 32.5 133.333 35.1666 133.333H42.6667C64.5523 133.333 65.4951 133.333 66.0809 132.748C66.6666 132.162 66.6666 131.219 66.6666 129.333V107C66.6666 105.114 66.6666 104.172 66.0809 103.586C65.4951 103 64.5523 103 62.6666 103H33.3333C31.4477 103 30.5049 103 29.9191 103.586C29.33331 104.172 29.33331 105.114 29.33331 107V139.167" stroke="#E6E1F0"/>
<path d="M41 114.667L55 114.667" stroke="#E6E1F0" stroke-linecap="round"/>
<path d="M66.6666 316V333C66.6666 334.886 66.6666 335.828 66.0809 336.414C65.4951 337 64.5523 337 62.6666 337H35.1666C32.5 337 31.1667 337 30.3065 336.212C30.2422 336.153 30.1804 336.091 30.1215 336.027C29.33331 335.167 29.33331 333.833 29.33331 331.167V331.167C29.33331 328.5 29.33331 327.167 30.1215 326.307C30.1804 326.242 30.2422 326.18 30.3065 326.121C31.1667 325.333 32.5 325.333 35.1666 325.333H42.6667C64.5523 325.333 65.4951 325.333 66.0809 324.748C66.6666 324.162 66.6666 323.219 66.6666 321.333V299C66.6666 297.114 66.6666 296.172 66.0809 295.586C65.4951 295 64.5523 295 62.6666 295H33.3333C31.4477 295 30.5049 295 29.9191 295.586C29.33331 296.172 29.33331 297.114 29.33331 299V331.167" stroke="#E6E1F0"/>
<path d="M41 306.667L55 306.667" stroke="#E6E1F0" stroke-linecap="round"/>
<path d="M66.6666 508V525C66.6666 526.886 66.6666 527.828 66.0809 528.414C65.4951 529 64.5523 529 62.6666 529H35.1666C32.5 529 31.1667 529 30.3065 528.212C30.2422 528.153 30.1804 528.091 30.1215 528.027C29.33331 527.167 29.33331 525.833 29.33331 523.167V523.167C29.33331 520.5 29.33331 519.167 30.1215 518.307C30.1804 518.242 30.2422 518.18 30.3065 518.121C31.1667 517.333 32.5 517.333 35.1666 517.333H42.6667C64.5523 517.333 65.4951 517.333 66.0809 516.748C66.6666 516.162 66.6666 515.219 66.6666 513.333V491C66.6666 489.114 66.6666 488.172 66.0809 487.586C65.4951 487 64.5523 487 62.6666 487H33.3333C31.4477 487 30.5049 487 29.9191 487.586C29.33331 488.172 29.33331 489.114 29.33331 491V523.167" stroke="#E6E1F0"/>
<path d="M41 498.667L55 498.667" stroke="#E6E1F0" stroke-linecap="round"/>
<path d="M66.6666 700V717C66.6666 718.886 66.6666 719.828 66.0809 720.414C65.4951 721 64.5523 721 62.6666 721H35.1666C32.5 721 31.1667 721 30.3065 720.212C30.2422 720.153 30.1804 720.091 30.1215 720.027C29.33331 719.167 29.33331 717.833 29.33331 715.167V715.167C29.33331 712.5 29.33331 711.167 30.1215 710.307C30.1804 710.242 30.2422 710.18 30.3065 710.121C31.1667 709.333 32.5 709.333 35.1666 709.333H42.6667C64.5523 709.333 65.4951 709.333 66.0809 708.748C66.6666 708.162 66.6666 707.219 66.6666 705.333V683C66.6666 681.114 66.6666 680.172 66.0809 679.586C65.4951 679 64.5523 679 62.6666 679H33.3333C31.4477 679 30.5049 679 29.9191 679.586C29.33331 680.172 29.33331 681.114 29.33331 683V715.167" stroke="#E6E1F0"/>
<path d="M41 690.667L55 690.667" stroke="#E6E1F0" stroke-linecap="round"/>
<path d="M125.333 124C125.333 120.593 125.333 118.889 125.609 117.471C126.776 111.469 131.469 106.776 137.471 105.609C138.889 105.333 140.593 105.333 144 105.333V105.333C147.407 105.333 149.111 105.333 150.529 105.609C156.531 106.776 161.224 111.469 162.391 117.471C162.667 118.889 162.667 120.593 162.667 124V134.807C162.667 138.442 162.667 140.259 161.572 141.416C161.521 141.469 161.469 141.521 161.416 141.572C160.259 142.667 158.442 142.667 154.807 142.667H144C140.593 142.667 138.889 142.667 137.471 142.391C131.469 141.224 126.776 136.531 125.609 130.529C125.333 129.111 125.333 127.407 125.333 124V124Z" stroke="#E6E1F0"/>
<path d="M137 121.667L151 121.667" stroke="#E6E1F0" stroke-linecap="round" stroke-linejoin="round"/>
<path d="M144 131H151" stroke="#E6E1F0" stroke-linecap="round" stroke-linejoin="round"/>
<path d="M125.333 316C125.333 312.593 125.333 310.889 125.609 309.471C126.776 303.469 131.469 298.776 137.471 297.609C138.889 297.333 140.593 297.333 144 297.333V297.333C147.407 297.333 149.111 297.333 150.529 297.609C156.531 298.776 161.224 303.469 162.391 309.471C162.667 310.889 162.667 312.593 162.667 316V326.807C162.667 330.442 162.667 332.259 161.572 333.416C161.521 333.469 161.469 333.521 161.416 333.572C160.259 334.667 158.442 334.667 154.807 334.667H144C140.593 334.667 138.889 334.667 137.471 334.391C131.469 333.224 126.776 328.531 125.609 322.529C125.333 321.111 125.333 319.407 125.333 316V316Z" stroke="#E6E1F0"/>
<path d="M137 313.667L151 313.667" stroke="#E6E1F0" stroke-linecap="round" stroke-linejoin="round"/>
<path d="M144 323H151" stroke="#E6E1F0" stroke-linecap="round" stroke-linejoin="round"/>
<path d="M125.333 508C125.333 504.593 125.333 502.889 125.609 501.471C126.776 495.469 131.469 490.776 137.471 489.609C138.889 489.333 140.593 489.333 144 489.333V489.333C147.407 489.333 149.111 489.333 150.529 489.609C156.531 490.776 161.224 495.469 162.391 501.471C162.667 502.889 162.667 504.593 162.667 508V518.807C162.667 522.442 162.667 524.259 161.572 525.416C161.521 525.469 161.469 525.521 161.416 525.572C160.259 526.667 158.442 526.667 154.807 526.667H144C140.593 526.667 138.889 526.667 137.471 526.391C131.469 525.224 126.776 520.531 125.609 514.529C125.333 513.111 125.333 511.407 125.333 508V508Z" stroke="#E6E1F0"/>
<path d="M137 505.667L151 505.667" stroke="#E6E1F0" stroke-linecap="round" stroke-linejoin="round"/>
<path d="M144 515H151" stroke="#E6E1F0" stroke-linecap="round" stroke-linejoin="round"/>
<path d="M125.333 700C125.333 696.593 125.333 694.889 125.609 693.471C126.776 687.469 131.469 682.776 137.471 681.609C138.889 681.333 140.593 681.333 144 681.333V681.333C147.407 681.333 149.111 681.333 150.529 681.609C156.531 682.776 161.224 687.469 162.391 693.471C162.667 694.889 162.667 696.593 162.667 700V710.807C162.667 714.442 162.667 716.259 161.572 717.416C161.521 717.469 161.469 717.521 161.416 717.572C160.259 718.667 158.442 718.667 154.807 718.667H144C140.593 718.667 138.889 718.667 137.471 718.391C131.469 717.224 126.776 712.531 125.609 706.529C125.333 705.111 125.333 703.407 125.333 700V700Z" stroke="#E6E1F0"/>
<path d="M137 697.667L151 697.667" stroke="#E6E1F0" stroke-linecap="round" stroke-linejoin="round"/>
<path d="M144 707H151" stroke="#E6E1F0" stroke-linecap="round" stroke-linejoin="round"/>
<path d="M162.667 28V45C162.667 46.8856 162.667 47.8284 162.081 48.4142C161.495 49 160.552 49 158.667 49H131.167C128.5 49 127.167 49 126.307 48.2118C126.242 48.1529 126.18 48.0911 126.121 48.0268C125.333 47.1666 125.333 45.8333 125.333 43.1667V43.1667C125.333 40.5 125.333 39.1667 126.121 38.3066C126.18 38.2422 126.242 38.1805 126.307 38.1215C127.167 37.3333 128.5 37.3333 131.167 37.3333H158.667C160.552 37.3333 161.495 37.3333 162.081 36.7475C162.667 36.1618 162.667 35.219 162.667 33.3333V11C162.667 9.11438 162.667 8.17157 162.081 7.58579C161.495 7 160.552 7 158.667 7H129.333C127.448 7 126.505 7 125.919 7.58579C125.333 8.17157 125.333 9.11438 125.333 11V43.1667" stroke="#E6E1F0"/>
<path d="M137 18.6667L151 18.6667" stroke="#E6E1F0" stroke-linecap="round"/>
<path d="M162.667 220V237C162.667 238.886 162.667 239.828 162.081 240.414C161.495 241 160.552 241 158.667 241H131.167C128.5 241 127.167 241 126.307 240.212C126.242 240.153 126.18 240.091 126.121 240.027C125.333 239.167 125.333 237.833 125.333 235.167V235.167C125.333 232.5 125.333 231.167 126.121 230.307C126.18 230.242 126.242 230.18 126.307 230.121C127.167 229.333 128.5 229.333 131.167 229.333H158.667C160.552 229.333 161.495 229.333 162.081 228.748C162.667 228.162 162.667 227.219 162.667 225.333V203C162.667 201.114 162.667 200.172 162.081 199.586C161.495 199 160.552 199 158.667 199H129.333C127.448 199 126.505 199 125.919 199.586C125.333 200.172 125.333 201.114 125.333 203V235.167" stroke="#E6E1F0"/>
<path d="M137 210.667L151 210.667" stroke="#E6E1F0" stroke-linecap="round"/>
<path d="M162.667 412V429C162.667 430.886 162.667 431.828 162.081 432.414C161.495 433 160.552 433 158.667 433H131.167C128.5 433 127.167 433 126.307 432.212C126.242 432.153 126.18 432.091 126.121 432.027C125.333 431.167 125.333 429.833 125.333 427.167V427.167C125.333 424.5 125.333 423.167 126.121 422.307C126.18 422.242 126.242 422.18 126.307 422.121C127.167 421.333 128.5 421.333 131.167 421.333H158.667C160.552 421.333 161.495 421.333 162.081 420.748C162.667 420.162 162.667 419.219 162.667 417.333V395C162.667 393.114 162.667 392.172 162.081 391.586C161.495 391 160.552 391 158.667 391H129.333C127.448 391 126.505 391 125.919 391.586C125.333 392.172 125.333 393.114 125.333 395V427.167" stroke="#E6E1F0"/>
<path d="M137 402.667L151 402.667" stroke="#E6E1F0" stroke-linecap="round"/>
<path d="M162.667 604V621C162.667 622.886 162.667 623.828 162.081 624.414C161.495 625 160.552 625 158.667 625H131.167C128.5 625 127.167 625 126.307 624.212C126.242 624.153 126.18 624.091 126.121 624.027C125.333 623.167 125.333 621.833 125.333 619.167V619.167C125.333 616.5 125.333 615.167 126.121 614.307C126.18 614.242 126.242 614.18 126.307 614.121C127.167 613.333 128.5 613.333 131.167 613.333H158.667C160.552 613.333 161.495 613.333 162.081 612.748C162.667 612.162 162.667 611.219 162.667 609.333V587C162.667 585.114 162.667 584.172 162.081 583.586C161.495 583 160.552 583 158.667 583H129.333C127.448 583 126.505 583 125.919 583.586C125.333 584.172 125.333 585.114 125.333 587V619.167" stroke="#E6E1F0"/>
<path d="M137 594.667L151 594.667" stroke="#E6E1F0" stroke-linecap="round"/>
<path d="M162.667 796V813C162.667 814.886 162.667 815.828 162.081 816.414C161.495 817 160.552 817 158.667 817H131.167C128.5 817 127.167 817 126.307 816.212C126.242 816.153 126.18 816.091 126.121 816.027C125.333 815.167 125.333 813.833 125.333 811.167V811.167C125.333 808.5 125.333 807.167 126.121 806.307C126.18 806.242 126.242 806.18 126.307 806.121C127.167 805.333 128.5 805.333 131.167 805.333H158.667C160.552 805.333 161.495 805.333 162.081 804.748C162.667 804.162 162.667 803.219 162.667 801.333V779C162.667 777.114 162.667 776.172 162.081 775.586C161.495 775 160.552 775 158.667 775H129.333C127.448 775 126.505 775 125.919 775.586C125.333 776.172 125.333 777.114 125.333 779V811.167" stroke="#E6E1F0"/>
<path d="M137 786.667L151 786.667" stroke="#E6E1F0" stroke-linecap="round"/>
</g>
</svg>
