<svg width="84" height="34" viewBox="0 0 84 34" fill="none" xmlns="http://www.w3.org/2000/svg">
<rect width="84" height="34" rx="17" fill="#FBEBEB"/>
<path d="M21.5 19.5L21.5 16.5" stroke="#F25A5A" stroke-linecap="round"/>
<path d="M26.5 19.5L26.5 16.5" stroke="#F25A5A" stroke-linecap="round"/>
<path d="M15 11.5H33V11.5C31.5955 11.5 30.8933 11.5 30.3889 11.8371C30.1705 11.983 29.983 12.1705 29.8371 12.3889C29.5 12.8933 29.5 13.5955 29.5 15V20.5C29.5 22.3856 29.5 23.3284 28.9142 23.9142C28.3284 24.5 27.3856 24.5 25.5 24.5H22.5C20.6144 24.5 19.6716 24.5 19.0858 23.9142C18.5 23.3284 18.5 22.3856 18.5 20.5V15C18.5 13.5955 18.5 12.8933 18.1629 12.3889C18.017 12.1705 17.8295 11.983 17.6111 11.8371C17.1067 11.5 16.4045 11.5 15 11.5V11.5Z" stroke="#F25A5A" stroke-linecap="round"/>
<path d="M21.5 8.50024C21.5 8.50024 22 7.5 24 7.5C26 7.5 26.5 8.5 26.5 8.5" stroke="#F25A5A" stroke-linecap="round"/>
<path d="M50.65 22.594V18.198H49.992V22.762C50.216 22.776 50.412 22.776 50.496 22.762C50.608 22.762 50.65 22.72 50.65 22.594ZM48.284 16.7H48.928V13.158H48.284V16.7ZM46.604 16.7H47.22V13.158H46.604V16.7ZM50.65 16.7V13.158H49.992V16.7H50.65ZM52.078 11.702V16.7H52.806V18.198H52.078V22.636C52.078 23.21 51.994 23.644 51.658 23.896C51.322 24.148 50.93 24.204 50.37 24.19C50.328 23.854 50.16 23.322 49.992 22.944V23.896H48.928V18.198H48.284V23.924H47.22V18.198H46.604V24.218H45.232V18.198H44.462V16.7H45.232V11.702H52.078ZM54.472 12.836V20.718H53.044V12.836H54.472ZM55.494 11.422H57.02V22.314C57.02 23.182 56.852 23.616 56.362 23.868C55.858 24.134 55.074 24.19 54.024 24.19C53.982 23.742 53.744 23.028 53.534 22.58C54.262 22.608 54.962 22.608 55.214 22.608C55.424 22.594 55.494 22.538 55.494 22.314V11.422ZM62.228 11.632L63.306 12.234C62.956 13.424 62.522 14.838 62.144 15.93C62.928 17.022 63.096 18.002 63.11 18.814C63.11 19.738 62.928 20.326 62.494 20.662C62.284 20.83 62.018 20.928 61.724 20.97C61.472 21.012 61.136 21.012 60.828 21.012C60.828 20.592 60.716 19.99 60.478 19.57C60.716 19.598 60.912 19.598 61.066 19.584C61.192 19.584 61.332 19.556 61.416 19.472C61.584 19.346 61.654 19.038 61.654 18.632C61.64 17.96 61.5 17.064 60.772 16.098C61.024 15.244 61.29 14.096 61.5 13.172H60.394V24.176H58.938V11.688H61.99L62.228 11.632ZM64.342 19.92L65.798 20.326C65.294 21.446 64.468 22.65 63.768 23.42C63.488 23.168 62.886 22.72 62.536 22.51C63.25 21.852 63.936 20.858 64.342 19.92ZM65.028 15.384H69.564C68.864 14.838 68.094 14.166 67.268 13.228C66.61 14.04 65.826 14.768 65.028 15.384ZM71.384 19.472H68.234V22.482C68.234 23.238 68.094 23.644 67.59 23.91C67.1 24.148 66.428 24.19 65.49 24.19C65.42 23.742 65.182 23.098 64.944 22.678C65.56 22.706 66.176 22.706 66.372 22.692C66.568 22.692 66.624 22.636 66.624 22.454V19.472H63.292V17.96H66.624V16.812H64.37V15.846C64.174 15.972 63.992 16.098 63.796 16.21C63.558 15.818 63.11 15.3 62.718 14.978C64.412 14.138 66.12 12.64 67.044 10.974L68.43 11.506C68.332 11.702 68.22 11.884 68.094 12.066C69.424 13.494 70.698 14.278 71.776 14.796C71.384 15.132 70.894 15.692 70.684 16.154C70.474 16.014 70.25 15.874 70.026 15.72V16.812H68.234V17.96H71.384V19.472ZM68.626 20.452L69.858 19.836C70.586 20.676 71.37 21.81 71.72 22.552L70.418 23.294C70.082 22.51 69.298 21.306 68.626 20.452Z" fill="#F25A5A"/>
</svg>
