<svg width="211" height="40" viewBox="0 0 211 40" fill="none" xmlns="http://www.w3.org/2000/svg">
<rect x="0.5" y="0.5" width="210" height="39" rx="7.5" stroke="#E5E5EA"/>
<path d="M23.934 16.658L23.024 16.98C22.898 16.476 22.59 15.678 22.324 15.09L23.192 14.824C23.486 15.398 23.794 16.168 23.934 16.658ZM24.116 23.56H21.974V25.898H24.116V23.56ZM25.04 22.706V26.752H21.974V27.396H21.064V22.706H25.04ZM21.008 21.614V20.788H25.082V21.614H21.008ZM25.068 18.898V19.724H20.994V18.898H25.068ZM20.672 17.988V17.134H25.474V17.988H20.672ZM27.364 24.554H31.606V23.518H27.406C27.406 23.84 27.392 24.19 27.364 24.554ZM31.606 21.74H27.406V22.776H31.606V21.74ZM32.586 20.914V26.486C32.586 26.99 32.488 27.242 32.11 27.396C31.76 27.55 31.186 27.55 30.304 27.55C30.262 27.284 30.15 26.934 30.01 26.682C30.64 26.71 31.214 26.71 31.382 26.696C31.564 26.696 31.606 26.64 31.606 26.486V25.296H27.266C27.112 26.178 26.832 27.06 26.258 27.746C26.104 27.55 25.74 27.172 25.53 27.06C26.356 26.01 26.454 24.596 26.454 23.49V20.914H32.586ZM29.954 19.29H33.398V20.088H25.628V19.29H28.932V18.338H26.132V17.582H28.932V16.728H25.782V15.93H28.932V14.796H29.954V15.93H33.258V16.728H29.954V17.582H32.992V18.338H29.954V19.29ZM46.928 16.056H44.912V16.994H46.928V16.056ZM47.208 19.472H45.248C44.282 19.472 44.044 19.122 44.044 18.184V15.356H47.838V17.708H44.912V18.198C44.912 18.59 44.968 18.716 45.276 18.716H47.18C47.418 18.716 47.852 18.702 48.09 18.66C48.104 18.884 48.132 19.206 48.174 19.402C47.964 19.458 47.572 19.472 47.208 19.472ZM42.434 16.042H40.46V16.98H42.434V16.042ZM40.46 18.758L43.456 18.296C43.414 18.534 43.372 18.856 43.372 19.038C40.264 19.598 39.858 19.682 39.62 19.822C39.564 19.584 39.368 19.192 39.256 18.982C39.41 18.898 39.62 18.73 39.62 18.198V15.342H43.33V17.694H40.46V18.758ZM42.602 21.53V22.818H44.786V21.53H42.602ZM48.23 22.818V23.63H39.13V22.818H41.636V21.53H39.704V20.718H41.636V19.71H42.602V20.718H44.786V19.71H45.752V20.718H47.782V21.53H45.752V22.818H48.23ZM48.006 25.394L47.082 25.87C46.494 25.352 45.444 24.708 44.422 24.218L45.122 23.742C46.158 24.232 47.334 24.876 48.006 25.394ZM42.098 23.756L43.022 24.078C42.28 24.764 41.146 25.478 40.194 25.926C40.012 25.73 39.634 25.408 39.396 25.282C40.39 24.89 41.44 24.33 42.098 23.756ZM38.542 17.008L37.744 17.582C37.366 16.994 36.596 16.042 35.98 15.356L36.75 14.88C37.394 15.566 38.15 16.448 38.542 17.008ZM38.528 21.432L39.032 21.628C38.864 22.776 38.584 23.798 38.248 24.666C39.172 26.22 40.936 26.444 43.582 26.444C45.066 26.444 47.096 26.374 48.538 26.248C48.37 26.486 48.258 26.962 48.202 27.256C46.886 27.326 45.122 27.368 43.582 27.368C40.74 27.368 38.962 27.088 37.87 25.506C37.38 26.402 36.806 27.102 36.148 27.606C36.008 27.382 35.672 27.032 35.462 26.892C36.68 26.024 37.562 24.47 37.982 22.314H36.722C36.414 22.314 36.036 22.412 35.924 22.51C35.868 22.258 35.672 21.782 35.56 21.572C35.756 21.516 35.952 21.432 36.176 21.166C36.428 20.872 37.1 19.738 37.576 18.87H35.714V18.002H38.122L38.29 17.932L38.976 18.212C38.5 19.01 37.632 20.508 36.988 21.46H38.346L38.528 21.432ZM54.62 20.69L54.76 21.642C54.284 21.81 53.822 21.978 53.36 22.118V26.29C53.36 26.864 53.22 27.144 52.87 27.312C52.548 27.48 52.016 27.508 51.134 27.508C51.092 27.242 50.966 26.822 50.826 26.528C51.428 26.556 51.988 26.556 52.142 26.542C52.31 26.542 52.38 26.486 52.38 26.304V22.454C51.834 22.65 51.302 22.818 50.812 22.972L50.56 21.978C51.064 21.838 51.694 21.642 52.38 21.418V18.562H50.7V17.596H52.38V14.81H53.36V17.596H54.774V18.562H53.36V21.11L54.62 20.69ZM60.724 21.698H57.476C57.686 22.104 57.952 22.636 58.022 22.986L57.882 23.028H60.136C60.332 22.622 60.584 22.09 60.724 21.698ZM58.414 16.07V17.526H59.814V16.07H58.414ZM57.588 17.526V16.07H56.258V17.526H57.588ZM60.64 16.07V17.526H62.054V16.07H60.64ZM63.286 24.848L63.3 25.66H59.548V27.578H58.554V25.66H54.76V24.848H58.554V23.84H55.236V23.028H57.084C56.972 22.692 56.79 22.244 56.608 21.894L57.406 21.698H54.956V20.872H58.554V19.892H55.558V19.094H58.554V18.268H55.404V15.314H62.936V18.268H59.548V19.094H62.642V19.892H59.548V20.872H63.09V21.698H60.878L61.704 21.922C61.494 22.3 61.27 22.692 61.074 23.028H62.796V23.84H59.548V24.848H63.286ZM69.06 16.532L68.234 17.008C68.024 16.504 67.562 15.72 67.198 15.132L67.996 14.726C68.402 15.3 68.85 16.028 69.06 16.532ZM70.726 17.162V18.016H65.616V17.162H70.726ZM70.25 18.996V19.822H66.19V18.996H70.25ZM66.19 21.642V20.816H70.25V21.642H66.19ZM69.438 25.856V23.546H67.1V25.856H69.438ZM72.154 18.492V19.948H74.002V18.492H72.154ZM72.154 16.224V17.652H74.002V16.224H72.154ZM76.816 17.652V16.224H74.912V17.652H76.816ZM76.816 19.948V18.492H74.912V19.948H76.816ZM78.202 22.902H75.5C76.256 24.134 77.474 25.394 78.552 26.066C78.314 26.248 77.992 26.598 77.824 26.85C76.844 26.122 75.752 24.876 74.968 23.602V27.564H73.96V23.714C73.162 25.03 72.042 26.262 70.936 26.948C70.81 26.752 70.572 26.444 70.362 26.262V26.724H67.1V27.382H66.19V22.678H70.362V26.108C71.524 25.436 72.714 24.19 73.456 22.902H70.698V21.964H73.96V20.802H71.216V15.37H77.782V20.802H74.968V21.964H78.202V22.902ZM91.578 19.01V16.392H87.308V19.01H91.578ZM92.586 15.496V19.906H86.328V15.496H92.586ZM85.922 22.454L85.292 23.28C85.068 22.888 84.494 22.118 84.018 21.544V27.536H83.01V21.348C82.436 22.762 81.694 24.162 80.98 25.016C80.882 24.722 80.63 24.316 80.462 24.064C81.344 23.084 82.31 21.278 82.87 19.682H80.728V18.702H83.01V16.574C82.324 16.714 81.61 16.826 80.966 16.924C80.91 16.686 80.77 16.35 80.644 16.112C82.226 15.86 84.074 15.454 85.124 14.992L85.838 15.776C85.32 16 84.69 16.182 84.018 16.35V18.702H85.768V19.682H84.018V20.536C84.452 20.9 85.642 22.132 85.922 22.454ZM89.926 26.29H93.328V27.214H85.404V26.29H88.89V24.414H86.188V23.504H88.89V21.852C87.952 21.936 87.014 22.006 86.146 22.048C86.118 21.824 85.992 21.474 85.894 21.25C88.064 21.124 90.724 20.844 92.138 20.438L92.824 21.208C92.026 21.432 91.018 21.6 89.926 21.74V23.504H92.754V24.414H89.926V26.29Z" fill="#8E8E93"/>
<path d="M184 17L190 23L196 17" stroke="#1F1F1F" stroke-width="2" stroke-linecap="round" stroke-linejoin="round"/>
</svg>
