<svg width="84" height="34" viewBox="0 0 84 34" fill="none" xmlns="http://www.w3.org/2000/svg">
<rect width="84" height="34" rx="17" fill="#8665CD"/>
<path fill-rule="evenodd" clip-rule="evenodd" d="M29.2099 11.191C28.7862 11.2664 28.2071 11.458 27.363 11.7394L20.8721 13.903C20.05 14.177 19.4518 14.3766 19.0174 14.5461C18.5659 14.7222 18.3678 14.8388 18.2849 14.9185C17.6707 15.5088 17.6707 16.4914 18.2849 17.0817C18.3678 17.1614 18.5659 17.278 19.0174 17.4541C19.4518 17.6236 20.05 17.8232 20.8721 18.0972C20.8851 18.1015 20.898 18.1058 20.9107 18.1101C21.2027 18.2073 21.4043 18.2745 21.5873 18.3713C22.031 18.6059 22.3938 18.9687 22.6285 19.4125C22.7253 19.5955 22.7924 19.7971 22.8897 20.089C22.8939 20.1018 22.8982 20.1146 22.9026 20.1277C23.1766 20.9498 23.3761 21.5479 23.5457 21.9824C23.7218 22.4338 23.8384 22.6319 23.9181 22.7149C24.5083 23.3291 25.491 23.3291 26.0812 22.7149C26.1609 22.6319 26.2775 22.4338 26.4537 21.9824C26.6232 21.5479 26.8227 20.9498 27.0967 20.1277L29.2604 13.6367C29.5418 12.7927 29.7334 12.2136 29.8088 11.7899C29.8848 11.3625 29.8098 11.2654 29.7721 11.2277C29.7343 11.19 29.6373 11.115 29.2099 11.191ZM29.0348 10.2064C29.5445 10.1158 30.0799 10.1213 30.4792 10.5206C30.8785 10.9199 30.884 11.4552 30.7933 11.965C30.7035 12.4698 30.4871 13.1189 30.2227 13.9121L30.2091 13.953L28.0454 20.4439L28.0405 20.4588C27.7724 21.263 27.565 21.8851 27.3853 22.3459C27.211 22.7925 27.0352 23.1654 26.8023 23.4078C25.8185 24.4315 24.1808 24.4315 23.1971 23.4078C22.9642 23.1654 22.7883 22.7925 22.6141 22.3459C22.4343 21.8851 22.2269 21.263 21.9589 20.4588L21.9539 20.4439C21.8388 20.0988 21.7979 19.9809 21.7445 19.88C21.6037 19.6137 21.386 19.3961 21.1198 19.2553C21.0189 19.2019 20.901 19.1609 20.5558 19.0459L20.5409 19.0409C19.7368 18.7728 19.1146 18.5655 18.6539 18.3857C18.2073 18.2115 17.8343 18.0356 17.592 17.8027C16.5683 16.819 16.5683 15.1812 17.592 14.1975C17.8343 13.9646 18.2073 13.7888 18.6539 13.6145C19.1147 13.4347 19.7368 13.2273 20.541 12.9593L20.5558 12.9543L27.0468 10.7907L27.0877 10.7771C27.8808 10.5126 28.53 10.2962 29.0348 10.2064Z" fill="white"/>
<path d="M51.448 21.852H57.37V23.532H44.644V21.852H49.656V11.31H51.448V15.314H56.39V17.008H51.448V21.852ZM67.8 17.68V18.212L69.144 18.198C68.976 18.03 68.808 17.876 68.654 17.736L68.766 17.68H67.8ZM64.622 16.756H66.19V16.182H64.622V16.756ZM64.622 14.74V15.314H66.19V14.74H64.622ZM69.396 14.74H67.8V15.314H69.396V14.74ZM69.396 16.756V16.182H67.8V16.756H69.396ZM69.76 19.346V19.99H71.538V21.25H69.76V22.692C69.76 23.434 69.62 23.812 69.074 24.022C68.542 24.232 67.8 24.232 66.792 24.232C66.722 23.812 66.526 23.252 66.33 22.846C66.974 22.874 67.688 22.874 67.884 22.874C68.094 22.86 68.164 22.804 68.164 22.65V21.25H65.042C65.574 21.754 66.134 22.342 66.428 22.776L65.112 23.616C64.79 23.084 64.09 22.272 63.474 21.698L64.188 21.25H62.242V19.99H68.164V19.388C66.134 19.444 64.16 19.486 62.676 19.514L62.536 18.268C63.53 18.268 64.804 18.254 66.19 18.24V17.68H63.096V13.83H66.19V13.298H62.536V12.64C62.256 13.284 61.934 13.942 61.584 14.572V24.19H60.002V17.036C59.694 17.442 59.372 17.82 59.05 18.156C58.896 17.75 58.448 16.826 58.168 16.434C59.428 15.174 60.632 13.186 61.346 11.184L62.928 11.688L62.774 12.094H66.19V11.24H67.8V12.094H71.398V13.298H67.8V13.83H70.992V17.68H70.376C70.894 18.17 71.412 18.716 71.706 19.136L70.516 19.794C70.432 19.654 70.306 19.5 70.18 19.332L69.76 19.346Z" fill="white"/>
</svg>
