<svg width="32" height="32" viewBox="0 0 32 32" fill="none" xmlns="http://www.w3.org/2000/svg">
<circle cx="16" cy="16" r="16" fill="#502F96"/>
<path fill-rule="evenodd" clip-rule="evenodd" d="M20.2103 11.1909C19.7865 11.2662 19.2074 11.4579 18.3634 11.7392L11.8724 13.9029C11.0504 14.1769 10.4522 14.3765 10.0177 14.546C9.56629 14.7221 9.36821 14.8387 9.28525 14.9184C8.67103 15.5087 8.67103 16.4913 9.28525 17.0815C9.36821 17.1613 9.56629 17.2778 10.0177 17.454C10.4522 17.6235 11.0504 17.823 11.8724 18.0971C11.8855 18.1014 11.8984 18.1057 11.9111 18.11C12.2031 18.2072 12.4046 18.2743 12.5877 18.3711C13.0314 18.6058 13.3942 18.9686 13.6289 19.4124C13.7257 19.5954 13.7928 19.7969 13.8901 20.0889C13.8943 20.1016 13.8986 20.1145 13.9029 20.1276C14.177 20.9496 14.3765 21.5478 14.546 21.9823C14.7222 22.4337 14.8387 22.6318 14.9185 22.7148C15.5087 23.329 16.4914 23.329 17.0816 22.7148C17.1613 22.6318 17.2779 22.4337 17.454 21.9823C17.6235 21.5478 17.8231 20.9496 18.0971 20.1276L20.2608 13.6366C20.5421 12.7926 20.7338 12.2135 20.8091 11.7898C20.8852 11.3624 20.8102 11.2653 20.7724 11.2276C20.7347 11.1898 20.6376 11.1148 20.2103 11.1909ZM20.0351 10.2063C20.5449 10.1156 21.0803 10.1212 21.4796 10.5205C21.8788 10.9197 21.8844 11.4551 21.7937 11.9649C21.7039 12.4697 21.4875 13.1188 21.2231 13.9119L21.2095 13.9528L19.0458 20.4438L19.0409 20.4586C18.7728 21.2629 18.5654 21.885 18.3856 22.3458C18.2114 22.7924 18.0355 23.1653 17.8026 23.4076C16.8189 24.4314 15.1812 24.4314 14.1974 23.4076C13.9645 23.1653 13.7887 22.7924 13.6144 22.3457C13.4347 21.885 13.2273 21.2629 12.9592 20.4587L12.9543 20.4438C12.8392 20.0987 12.7982 19.9807 12.7449 19.8799C12.6041 19.6136 12.3864 19.3959 12.1201 19.2551C12.0193 19.2018 11.9014 19.1608 11.5562 19.0458L11.5413 19.0408C10.7371 18.7727 10.115 18.5654 9.65426 18.3856C9.20765 18.2113 8.83471 18.0355 8.59236 17.8026C7.56866 16.8189 7.56866 15.1811 8.59236 14.1974C8.83471 13.9645 9.20765 13.7886 9.65426 13.6144C10.115 13.4346 10.7371 13.2272 11.5414 12.9592L11.5562 12.9542L18.0472 10.7905L18.088 10.7769C18.8812 10.5125 19.5303 10.2961 20.0351 10.2063Z" fill="white"/>
</svg>
