<svg width="82" height="32" viewBox="0 0 82 32" fill="none" xmlns="http://www.w3.org/2000/svg">
<rect y="-3.05176e-05" width="82" height="32" rx="16" fill="#8665CD"/>
<path d="M22.5625 15.5625V10.75C22.5625 10.6222 22.6035 10.5174 22.6854 10.4354C22.7674 10.3534 22.8723 10.3125 23 10.3125C23.1277 10.3125 23.2326 10.3534 23.3146 10.4354C23.3965 10.5174 23.4375 10.6222 23.4375 10.75V15.5625H28.25C28.3778 15.5625 28.4826 15.6034 28.5646 15.6854C28.6465 15.7674 28.6875 15.8722 28.6875 16C28.6875 16.1277 28.6465 16.2326 28.5646 16.3145C28.4826 16.3965 28.3778 16.4375 28.25 16.4375H23.4375V21.25C23.4375 21.3777 23.3965 21.4826 23.3146 21.5645C23.2326 21.6465 23.1277 21.6875 23 21.6875C22.8723 21.6875 22.7674 21.6465 22.6854 21.5645C22.6035 21.4826 22.5625 21.3777 22.5625 21.25V16.4375H17.75C17.6222 16.4375 17.5174 16.3965 17.4354 16.3145C17.3535 16.2326 17.3125 16.1277 17.3125 16C17.3125 15.8722 17.3535 15.7674 17.4354 15.6854C17.5174 15.6034 17.6222 15.5625 17.75 15.5625H22.5625Z" fill="white"/>
<path d="M39.638 18.92L40.912 19.284C40.562 20.292 39.988 21.44 39.498 22.154C39.246 21.944 38.714 21.58 38.406 21.398C38.882 20.74 39.344 19.788 39.638 18.92ZM42.928 12.886H40.856C41.066 13.348 41.248 13.95 41.318 14.342L40.31 14.622H42.326C42.536 14.118 42.788 13.404 42.928 12.886ZM45.042 18.472H42.872V23.12H41.262V18.472H38.658V17.072H41.262V15.994H38.574V14.622H39.932C39.862 14.202 39.694 13.6 39.526 13.166L40.674 12.886H38.784V11.528H41.178C41.052 11.15 40.898 10.758 40.758 10.422L42.424 10.016C42.634 10.478 42.886 11.052 43.054 11.528H45.056V12.886H43.306L44.44 13.11C44.23 13.642 44.02 14.188 43.81 14.622H45.266V15.994H42.872V17.072H45.042V18.472ZM51.51 14.748V16.288H50.208V23.162H48.584V16.288H47.282V16.456C47.282 18.514 47.1 21.398 45.91 23.19C45.63 22.896 44.972 22.364 44.622 22.196C44.888 21.79 45.098 21.328 45.252 20.838L44.258 21.454C44.034 20.894 43.558 19.998 43.166 19.354L44.258 18.766C44.636 19.326 45.07 20.068 45.308 20.6C45.7 19.256 45.742 17.744 45.742 16.456V11.472C47.268 11.192 48.962 10.758 49.984 10.282L51.258 11.5C50.11 11.962 48.654 12.298 47.282 12.55V14.748H51.51ZM55.486 18.836L56.662 18.416L56.97 19.9C55.612 20.46 54.156 21.048 52.966 21.538L52.434 19.872C52.868 19.746 53.372 19.578 53.946 19.382V15H52.672V13.46H53.946V10.324H55.486V13.46H56.718V15H55.486V18.836ZM62.766 18.794H59.35V19.55H62.766V18.794ZM59.35 21.342H62.766V20.698H59.35V21.342ZM57.838 23.218V17.59H64.334V23.218H62.766V22.546H59.35V23.218H57.838ZM58.608 13.768L59.476 13.46C59.854 14.062 60.204 14.846 60.302 15.392L59.406 15.728C59.308 15.21 58.972 14.384 58.608 13.768ZM62.444 15.714L61.674 15.42C61.968 14.888 62.318 14.062 62.5 13.488L63.522 13.838C63.144 14.496 62.766 15.238 62.444 15.714ZM63.522 13.236H61.604V15.91H63.522V13.236ZM58.496 13.236V15.91H60.4V13.236H58.496ZM63.312 12.158H64.922V17.002H57.18V12.158H58.846C58.636 11.71 58.3 11.136 57.978 10.688L59.406 10.114C59.784 10.59 60.204 11.276 60.4 11.71L59.448 12.158H61.632C61.996 11.556 62.43 10.73 62.654 10.1L64.404 10.632C64.04 11.164 63.662 11.696 63.312 12.158Z" fill="white"/>
</svg>
