<svg width="16" height="16" viewBox="0 0 16 16" fill="none" xmlns="http://www.w3.org/2000/svg">
<g id="Download_circle_light">
<path id="Ellipse 47" d="M3.49243 9.87441C3.75831 10.8667 4.34419 11.7435 5.15919 12.3689C5.9742 12.9943 6.97279 13.3333 8.00008 13.3333C9.02737 13.3333 10.026 12.9943 10.841 12.3689C11.656 11.7435 12.2419 10.8667 12.5077 9.87441" stroke="white"/>
<path id="Vector 9" d="M8.00008 2.66663L7.68773 2.27619L8.00008 2.02631L8.31243 2.27619L8.00008 2.66663ZM8.50008 8.66663C8.50008 8.94277 8.27622 9.16663 8.00008 9.16663C7.72394 9.16663 7.50008 8.94277 7.50008 8.66663L8.50008 8.66663ZM4.3544 4.94286L7.68773 2.27619L8.31243 3.05706L4.9791 5.72373L4.3544 4.94286ZM8.31243 2.27619L11.6458 4.94286L11.0211 5.72373L7.68773 3.05706L8.31243 2.27619ZM8.50008 2.66663L8.50008 8.66663L7.50008 8.66663L7.50008 2.66663L8.50008 2.66663Z" fill="white"/>
</g>
</svg>
