<svg width="12" height="12" viewBox="0 0 12 12" fill="none" xmlns="http://www.w3.org/2000/svg">
<path d="M5.73038 4.03128L1.746 8.21478C1.67575 8.29303 1.64062 8.37903 1.64062 8.47278C1.64062 8.56653 1.67575 8.65253 1.746 8.73078V8.7424C1.81625 8.81265 1.90025 8.84778 1.998 8.84778C2.09575 8.84778 2.17975 8.81265 2.25 8.7424L6 4.8049L9.75 8.7424C9.82025 8.81265 9.90425 8.84778 10.002 8.84778C10.0998 8.84778 10.1838 8.81265 10.254 8.7424V8.73078C10.3243 8.65253 10.3594 8.56653 10.3594 8.47278C10.3594 8.37903 10.3243 8.29303 10.254 8.21478L6.26962 4.03128C6.19938 3.96103 6.1095 3.9259 6 3.9259C5.8905 3.9259 5.80062 3.96103 5.73038 4.03128Z" fill="#A8ABB2"/>
</svg>
