<svg width="16" height="16" viewBox="0 0 16 16" fill="none" xmlns="http://www.w3.org/2000/svg">
<path d="M6 3.99988C6 4.26252 6.05173 4.52259 6.15224 4.76524C6.25275 5.0079 6.40007 5.22837 6.58579 5.41409C6.7715 5.59981 6.99198 5.74713 7.23463 5.84764C7.47728 5.94815 7.73736 5.99988 8 5.99988C8.26264 5.99988 8.52272 5.94815 8.76537 5.84764C9.00802 5.74713 9.2285 5.59981 9.41421 5.41409C9.59993 5.22837 9.74725 5.0079 9.84776 4.76524C9.94827 4.52259 10 4.26252 10 3.99988C10 3.73723 9.94827 3.47716 9.84776 3.23451C9.74725 2.99186 9.59993 2.77138 9.41421 2.58566C9.2285 2.39995 9.00802 2.25263 8.76537 2.15212C8.52271 2.05161 8.26264 1.99988 8 1.99988C7.73736 1.99988 7.47728 2.05161 7.23463 2.15212C6.99198 2.25263 6.7715 2.39995 6.58579 2.58567C6.40007 2.77138 6.25275 2.99186 6.15224 3.23451C6.05173 3.47716 6 3.73724 6 3.99988L6 3.99988Z" stroke="#8665CD"/>
<path d="M2.95862 9.26759C2.73117 9.39891 2.5318 9.57375 2.37192 9.78212C2.21203 9.99049 2.09475 10.2283 2.02677 10.482C1.95879 10.7357 1.94145 11.0003 1.97573 11.2607C2.01002 11.5211 2.09525 11.7722 2.22657 11.9996C2.35789 12.2271 2.53273 12.4265 2.7411 12.5863C2.94947 12.7462 3.18729 12.8635 3.44099 12.9315C3.69468 12.9995 3.95928 13.0168 4.21968 12.9825C4.48007 12.9482 4.73117 12.863 4.95862 12.7317C5.18608 12.6004 5.38544 12.4255 5.54533 12.2172C5.70522 12.0088 5.8225 11.771 5.89047 11.5173C5.95845 11.2636 5.97579 10.999 5.94151 10.7386C5.90723 10.4782 5.822 10.2271 5.69067 9.99964C5.55935 9.77218 5.38451 9.57282 5.17615 9.41293C4.96778 9.25304 4.72995 9.13576 4.47626 9.06779C4.22257 8.99981 3.95797 8.98247 3.69757 9.01675C3.43717 9.05103 3.18608 9.13627 2.95862 9.26759L2.95862 9.26759Z" stroke="#8665CD"/>
<path d="M13.0414 9.26759C13.2688 9.39891 13.4682 9.57375 13.6281 9.78212C13.788 9.99049 13.9053 10.2283 13.9732 10.482C14.0412 10.7357 14.0585 11.0003 14.0243 11.2607C13.99 11.5211 13.9047 11.7722 13.7734 11.9996C13.6421 12.2271 13.4673 12.4265 13.2589 12.5863C13.0505 12.7462 12.8127 12.8635 12.559 12.9315C12.3053 12.9995 12.0407 13.0168 11.7803 12.9825C11.5199 12.9482 11.2688 12.863 11.0414 12.7317C10.8139 12.6004 10.6146 12.4255 10.4547 12.2172C10.2948 12.0088 10.1775 11.771 10.1095 11.5173C10.0415 11.2636 10.0242 10.999 10.0585 10.7386C10.0928 10.4782 10.178 10.2271 10.3093 9.99964C10.4406 9.77218 10.6155 9.57282 10.8239 9.41293C11.0322 9.25304 11.27 9.13576 11.5237 9.06779C11.7774 8.99981 12.042 8.98247 12.3024 9.01675C12.5628 9.05103 12.8139 9.13627 13.0414 9.26759L13.0414 9.26759Z" stroke="#8665CD"/>
<path fill-rule="evenodd" clip-rule="evenodd" d="M6.01687 4.25898C6.00568 4.1733 6.00004 4.08681 6.00004 4.00003C6.00004 3.73739 6.05177 3.47732 6.15228 3.23467C6.1689 3.19453 6.18681 3.15499 6.20596 3.11612C6.05803 3.16394 5.91184 3.21772 5.76776 3.2774C5.06003 3.57056 4.41696 4.00024 3.87529 4.54191C3.33361 5.08359 2.90393 5.72665 2.61078 6.43438C2.31763 7.14212 2.16675 7.90066 2.16675 8.6667C2.16675 9.07821 2.21029 9.48756 2.29603 9.88802C2.32013 9.85199 2.34542 9.81671 2.37187 9.78223C2.53176 9.57386 2.73112 9.39902 2.95858 9.2677C3.03373 9.22431 3.11146 9.18596 3.19126 9.15281C3.17496 8.99158 3.16675 8.82935 3.16675 8.6667C3.16675 8.03198 3.29177 7.40347 3.53466 6.81707C3.77756 6.23066 4.13358 5.69784 4.5824 5.24902C4.99689 4.83452 5.48304 4.49917 6.01687 4.25898ZM9.98321 4.25894C10.5171 4.49914 11.0032 4.8345 11.4178 5.24902C11.8666 5.69783 12.2226 6.23066 12.4655 6.81706C12.7084 7.40347 12.8334 8.03198 12.8334 8.6667C12.8334 8.82936 12.8252 8.9916 12.8089 9.15284C12.8887 9.18599 12.9664 9.22433 13.0415 9.2677C13.2689 9.39903 13.4683 9.57386 13.6282 9.78223C13.6547 9.81674 13.68 9.85206 13.7041 9.88812C13.7899 9.48762 13.8334 9.07824 13.8334 8.6667C13.8334 7.90065 13.6825 7.14211 13.3894 6.43438C13.0962 5.72665 12.6665 5.08358 12.1249 4.54191C11.5832 4.00023 10.9401 3.57055 10.2324 3.2774C10.0883 3.21771 9.94206 3.16391 9.79409 3.11609C9.81325 3.15497 9.83116 3.19451 9.84779 3.23467C9.9483 3.47732 10 3.73739 10 4.00003C10 4.0868 9.99439 4.17328 9.98321 4.25894ZM11.9103 12.9954C11.8669 12.9926 11.8236 12.9883 11.7804 12.9826C11.52 12.9484 11.2689 12.8631 11.0415 12.7318C10.9664 12.6885 10.8944 12.6404 10.8259 12.5879C10.5233 12.8059 10.1959 12.9887 9.84972 13.1321C9.26331 13.375 8.6348 13.5 8.00008 13.5C7.36536 13.5 6.73685 13.375 6.15044 13.1321C5.80428 12.9887 5.4768 12.8059 5.17424 12.5879C5.10569 12.6404 5.03366 12.6885 4.95858 12.7318C4.73112 12.8631 4.48003 12.9484 4.21963 12.9826C4.17647 12.9883 4.13319 12.9926 4.08987 12.9954C4.58393 13.4417 5.15131 13.8007 5.76776 14.056C6.47549 14.3491 7.23404 14.5 8.00008 14.5C8.76613 14.5 9.52467 14.3491 10.2324 14.056C10.8489 13.8007 11.4162 13.4417 11.9103 12.9954Z" fill="#8665CD"/>
</svg>
