<svg width="24" height="24" viewBox="0 0 24 24" fill="none" xmlns="http://www.w3.org/2000/svg">
<circle cx="12" cy="12" r="12" fill="#F2F2F7"/>
<path d="M16 5.00001V5.00001C17.1046 5 18 5.89543 18 7L18 8.42857C18 8.49491 18 8.52808 17.9969 8.55598C17.9707 8.78779 17.7878 8.97074 17.556 8.99686C17.5281 9 17.4949 9 17.4286 9L14 9M16 5.00001V5.00001C14.8954 5 14 5.89544 14 7.00001L14 9M16 5.00001L10 5.00001C8.11438 5 7.17157 5 6.58579 5.58579C6 6.17158 6 7.11439 6 9.00001L6 17L8 16.3333L10 17L12 16.3333L14 17L14 9" stroke="#502F96"/>
<path d="M8.66663 7.66669L11.3333 7.66669" stroke="#502F96" stroke-linecap="round"/>
<path d="M9.33337 10.3333H8.66671" stroke="#502F96" stroke-linecap="round"/>
<path d="M8.66663 13L10.6666 13" stroke="#502F96" stroke-linecap="round"/>
</svg>
