<svg width="19" height="18" viewBox="0 0 19 18" fill="none" xmlns="http://www.w3.org/2000/svg">
<g id="Book_open_light">
<path id="Vector 58" d="M7.5 15.6667H10C11.1046 15.6667 12 16.5621 12 17.6667V11.5C12 10.1022 12 9.40326 11.7716 8.85195C11.4672 8.11687 10.8831 7.53284 10.1481 7.22836C9.59674 7 8.89782 7 7.5 7C7.03406 7 6.80109 7 6.61732 7.07612C6.37229 7.17761 6.17761 7.37229 6.07612 7.61732C6 7.80109 6 8.03406 6 8.5V14.1667C6 14.6326 6 14.8656 6.07612 15.0494C6.17761 15.2944 6.37229 15.4891 6.61732 15.5905C6.80109 15.6667 7.03406 15.6667 7.5 15.6667Z" stroke="#502F96"/>
<path id="Vector 59" d="M16.5 15.6667H14C12.8954 15.6667 12 16.5621 12 17.6667V11.5C12 10.1022 12 9.40326 12.2284 8.85195C12.5328 8.11687 13.1169 7.53284 13.8519 7.22836C14.4033 7 15.1022 7 16.5 7C16.9659 7 17.1989 7 17.3827 7.07612C17.6277 7.17761 17.8224 7.37229 17.9239 7.61732C18 7.80109 18 8.03406 18 8.5V14.1667C18 14.6326 18 14.8656 17.9239 15.0494C17.8224 15.2944 17.6277 15.4891 17.3827 15.5905C17.1989 15.6667 16.9659 15.6667 16.5 15.6667Z" stroke="#502F96"/>
</g>
</svg>
