<svg width="16" height="16" viewBox="0 0 16 16" fill="none" xmlns="http://www.w3.org/2000/svg">
<path d="M14 6.66665L14 5.99998C14 5.38 14 5.07001 13.9319 4.81567C13.7469 4.12549 13.2078 3.5864 12.5176 3.40146C12.2633 3.33331 11.9533 3.33331 11.3333 3.33331" stroke="#502F96" stroke-linejoin="round"/>
<path d="M2 6.66665L2 5.99998C2 5.38 2 5.07001 2.06815 4.81567C2.25308 4.12549 2.79218 3.5864 3.48236 3.40146C3.7367 3.33331 4.04669 3.33331 4.66667 3.33331" stroke="#502F96" stroke-linejoin="round"/>
<path d="M14 9.33331L14 9.99998C14 10.62 14 10.93 13.9319 11.1843C13.7469 11.8745 13.2078 12.4136 12.5176 12.5985C12.2633 12.6666 11.9533 12.6666 11.3333 12.6666" stroke="#502F96" stroke-linejoin="round"/>
<path d="M2 9.33331L2 9.99998C2 10.62 2 10.93 2.06815 11.1843C2.25308 11.8745 2.79218 12.4136 3.48236 12.5985C3.7367 12.6666 4.04669 12.6666 4.66667 12.6666" stroke="#502F96" stroke-linejoin="round"/>
<path d="M8 10L8 6" stroke="#502F96" stroke-linecap="round" stroke-linejoin="round"/>
<path d="M5.33325 9.33335L5.33325 6.66669" stroke="#502F96" stroke-linecap="round" stroke-linejoin="round"/>
<path d="M10.6667 9.33335L10.6667 6.66669" stroke="#502F96" stroke-linecap="round" stroke-linejoin="round"/>
</svg>
