<svg width="14" height="14" viewBox="0 0 14 14" fill="none" xmlns="http://www.w3.org/2000/svg">
<path d="M7 7C7.74754 6.98163 8.36733 6.72642 8.85938 6.23438C9.35142 5.74233 9.60663 5.12254 9.625 4.375C9.60663 3.62746 9.35142 3.00767 8.85938 2.51562C8.36733 2.02358 7.74754 1.76837 7 1.75C6.25246 1.76837 5.63267 2.02358 5.14062 2.51562C4.64858 3.00767 4.39337 3.62746 4.375 4.375C4.39337 5.12254 4.64858 5.74233 5.14062 6.23438C5.63267 6.72642 6.25246 6.98163 7 7ZM7 7.875C6.00658 7.84758 5.18175 7.50575 4.5255 6.8495C3.86925 6.19325 3.52742 5.36842 3.5 4.375C3.52742 3.38158 3.86925 2.55675 4.5255 1.9005C5.18175 1.24425 6.00658 0.902417 7 0.875C7.99342 0.902417 8.81825 1.24425 9.4745 1.9005C10.1307 2.55675 10.4726 3.38158 10.5 4.375C10.4726 5.36842 10.1307 6.19325 9.4745 6.8495C8.81825 7.50575 7.99342 7.84758 7 7.875ZM11.375 12.25V10.9375C11.366 10.5639 11.2384 10.254 10.9922 10.0078C10.746 9.76165 10.4361 9.63404 10.0625 9.625H3.9375C3.56387 9.63404 3.25398 9.76165 3.00781 10.0078C2.76165 10.254 2.63404 10.5639 2.625 10.9375V12.25C2.625 12.3778 2.58402 12.4826 2.50206 12.5646C2.4201 12.6465 2.31525 12.6875 2.1875 12.6875C2.05975 12.6875 1.9549 12.6465 1.87294 12.5646C1.79098 12.4826 1.75 12.3778 1.75 12.25V10.9375C1.76837 10.3177 1.9826 9.80277 2.39269 9.39269C2.80277 8.9826 3.31771 8.76837 3.9375 8.75H10.0625C10.6823 8.76837 11.1972 8.9826 11.6073 9.39269C12.0174 9.80277 12.2316 10.3177 12.25 10.9375V12.25C12.25 12.3778 12.209 12.4826 12.1271 12.5646C12.0451 12.6465 11.9403 12.6875 11.8125 12.6875C11.6847 12.6875 11.5799 12.6465 11.4979 12.5646C11.416 12.4826 11.375 12.3778 11.375 12.25Z" fill="#502F96"/>
</svg>
